<svg xmlns="http://www.w3.org/2000/svg" xmlns:xlink="http://www.w3.org/1999/xlink" id="Layer_1" x="0" y="0" version="1.1" viewBox="0 0 21.73 21.73" xml:space="preserve" style="enable-background:new 0 0 21.73 21.73"><style type="text/css">.st6{fill:#fff}</style><g id="KzFriM.tif_00000009573886527890433340000006683982088352044698_"><g><path d="M11.57,14.69c-1.22-0.02-2.28-0.45-3.17-1.3c-0.37-0.36-0.39-0.9-0.06-1.28c0.33-0.37,0.89-0.4,1.27-0.05 c0.6,0.55,1.28,0.85,2.09,0.8c0.62-0.03,1.17-0.26,1.64-0.66c0.07-0.06,0.14-0.12,0.2-0.19c1.84-1.83,3.67-3.67,5.51-5.5 c0.93-0.93,1.12-2.26,0.49-3.34c-0.86-1.48-2.87-1.81-4.15-0.66c-0.48,0.43-0.92,0.9-1.37,1.36c-0.6,0.6-1.2,1.2-1.8,1.8 c-0.27,0.27-0.59,0.36-0.95,0.23c-0.35-0.13-0.55-0.38-0.6-0.76c-0.03-0.24,0.04-0.46,0.19-0.65c0.09-0.1,0.18-0.2,0.28-0.29 C12.07,3.26,13,2.32,13.94,1.4c1.46-1.45,3.45-1.79,5.29-0.92c1.82,0.87,2.86,3.07,2.4,5.03c-0.21,0.89-0.63,1.64-1.28,2.28 c-1.84,1.84-3.68,3.68-5.52,5.52C13.93,14.2,12.85,14.66,11.57,14.69z" class="st6"/><path d="M9.8,7.55c1.06,0.02,2.12,0.44,3,1.28c0.39,0.37,0.41,0.91,0.07,1.29c-0.34,0.37-0.88,0.4-1.27,0.05 c-0.44-0.39-0.92-0.68-1.5-0.77c-0.84-0.13-1.58,0.08-2.23,0.63c-0.12,0.11-0.24,0.22-0.35,0.34c-1.62,1.62-3.24,3.24-4.86,4.86 c-0.99,1-1.12,2.46-0.32,3.56c0.95,1.31,2.83,1.52,4.01,0.42c0.89-0.84,1.74-1.72,2.6-2.59c0.26-0.26,0.57-0.39,0.94-0.29 c0.64,0.18,0.88,0.94,0.45,1.44c-0.21,0.24-0.44,0.46-0.67,0.68c-0.68,0.68-1.34,1.38-2.05,2.03c-2.21,2.05-5.61,1.49-7.08-1.14 c-0.9-1.61-0.68-3.8,0.6-5.13c1.79-1.85,3.62-3.66,5.45-5.46C7.41,7.95,8.52,7.56,9.8,7.55z" class="st6"/></g></g></svg>