<svg xmlns="http://www.w3.org/2000/svg" xmlns:xlink="http://www.w3.org/1999/xlink" id="Layer_1" x="0" y="0" version="1.1" viewBox="0 0 43.55 43.55" xml:space="preserve" style="enable-background:new 0 0 43.55 43.55"><style type="text/css">.st37,.st6{fill:#fff}.st37{opacity:.25}</style><g><circle cx="21.78" cy="21.78" r="21.78" class="st37"/><g id="zqx7Gq.tif_00000009565907940728648490000014592441378131138465_"><g><g><path d="M17.56,17.51c2.82-0.79,5.62-0.79,8.44,0c-0.7-0.53-1.47-0.9-2.3-1.22c0.1-0.29,0.21-0.57,0.32-0.87 c0.32,0.14,0.64,0.26,0.95,0.41c0.85,0.4,1.66,0.88,2.32,1.55c0.18,0.19,0.32,0.43,0.44,0.67c0.72,1.45,1.22,2.98,1.48,4.58 c0.17,1.06,0.29,2.13,0.42,3.19c0.01,0.08-0.03,0.18-0.07,0.25c-0.62,0.86-1.45,1.41-2.44,1.74c-0.65,0.22-1.33,0.32-2.02,0.32 c-0.05,0-0.11-0.01-0.13-0.04c-0.27-0.39-0.54-0.78-0.82-1.19c0.97-0.27,1.86-0.66,2.7-1.22c-0.17-0.26-0.33-0.5-0.49-0.74 c-3.04,1.81-6.06,1.81-9.11,0c-0.15,0.23-0.32,0.48-0.49,0.74c0.83,0.56,1.72,0.95,2.69,1.22c-0.02,0.04-0.04,0.08-0.06,0.11 c-0.24,0.35-0.47,0.69-0.72,1.03c-0.03,0.04-0.09,0.09-0.14,0.09c-1.45-0.02-2.78-0.39-3.88-1.38 c-0.24-0.21-0.43-0.48-0.64-0.72c-0.04-0.04-0.06-0.12-0.05-0.18c0.14-1.56,0.34-3.12,0.73-4.64c0.26-1.03,0.63-2.01,1.08-2.98 c0.25-0.56,0.63-0.99,1.11-1.36c0.82-0.61,1.72-1.08,2.69-1.44c0.11,0.29,0.21,0.57,0.32,0.86 C19.04,16.61,18.26,16.98,17.56,17.51z M18.74,21.72c0,0.51,0,1.01,0,1.51c0.3,0,0.6,0,0.9,0c0-0.51,0-1.01,0-1.51 C19.34,21.72,19.04,21.72,18.74,21.72z M24.82,23.23c0-0.51,0-1.01,0-1.51c-0.31,0-0.6,0-0.9,0c0,0.51,0,1.01,0,1.51 C24.22,23.23,24.52,23.23,24.82,23.23z" class="st6"/></g></g></g></g></svg>