<svg xmlns="http://www.w3.org/2000/svg" xmlns:xlink="http://www.w3.org/1999/xlink" id="Layer_1" x="0" y="0" version="1.1" viewBox="0 0 29.71 21.45" xml:space="preserve" style="enable-background:new 0 0 29.71 21.45"><style type="text/css">.st6{fill:#fff}</style><g id="ySfM9V_00000048476270613284833110000012435754497832535961_"><g><g><path d="M0,9.46c0.37-1.38,1.43-2.04,2.63-2.63c4.4-2.15,8.78-4.35,13.16-6.55c0.8-0.4,1.55-0.36,2.33,0.04 c3.19,1.63,6.46,3.09,9.7,4.62c0.34,0.16,0.72,0.28,0.74,0.74c0.02,0.48-0.38,0.6-0.71,0.77c-4.54,2.36-9.09,4.71-13.62,7.1 c-0.86,0.46-1.59,0.48-2.47,0c-2.88-1.56-5.79-3.05-8.7-4.57C2.41,8.62,2,8.78,1.73,9.48c-0.53,1.38,0.19,3.28,1.51,3.97 c2.39,1.25,4.79,2.5,7.18,3.77c0.32,0.17,0.52,0.25,0.81-0.13c1.08-1.37,2.86-1.46,4.1-0.24c0.24,0.23,0.39,0.26,0.66,0.11 c2.67-1.44,5.35-2.87,8.02-4.29c0.23-0.13,0.44-0.21,0.39-0.58c-0.22-1.55,0.63-2.82,2.04-3.13c1.39-0.31,2.63,0.46,3.15,1.94 c0.02,0.05,0.08,0.1,0.12,0.14c0,0.44,0,0.88,0,1.32c-0.06,0.08-0.14,0.16-0.19,0.25c-0.82,1.65-2.25,2.15-3.89,1.33 c-0.3-0.15-0.49-0.06-0.72,0.06c-2.8,1.52-5.6,3.04-8.42,4.54c-0.31,0.16-0.44,0.37-0.51,0.7c-0.28,1.3-1.24,2.12-2.53,2.2 c-1.08,0.06-2.24-0.74-2.61-1.86c-0.12-0.38-0.33-0.58-0.66-0.75c-2.02-1.03-3.99-2.15-6.04-3.09C2.17,14.84,0.52,13.7,0,11.44 C0,10.78,0,10.12,0,9.46z M27,12.48c0.47,0,0.87-0.4,0.88-0.88c0.01-0.47-0.4-0.89-0.86-0.9c-0.45-0.01-0.87,0.42-0.88,0.89 C26.14,12.07,26.53,12.48,27,12.48z M14.25,18.75c0.01-0.49-0.37-0.86-0.87-0.86c-0.51,0-0.87,0.35-0.87,0.85 c0,0.5,0.37,0.87,0.86,0.88C13.85,19.63,14.25,19.23,14.25,18.75z" class="st6"/></g></g></g></svg>