<svg xmlns="http://www.w3.org/2000/svg" xmlns:xlink="http://www.w3.org/1999/xlink" id="Layer_1" x="0" y="0" version="1.1" viewBox="0 0 25.69 25.78" xml:space="preserve" style="enable-background:new 0 0 25.69 25.78"><style type="text/css">.st6{fill:#fff}</style><g id="_x39_DA7dI.tif_00000005988909976794684240000002566465872448938634_"><g><path d="M13.6,21.48c0,0.24,0,0.43,0,0.63c0,0.94,0,1.88,0,2.82c0,0.51-0.32,0.85-0.77,0.84 c-0.44-0.01-0.74-0.34-0.74-0.84c0-1.05,0-2.1,0-3.15c0-0.09,0-0.18,0-0.29c-0.42,0.19-0.81,0.38-1.21,0.55 c-3.08,1.3-6.1,1.08-9.05-0.41c-0.48-0.25-0.95-0.52-1.41-0.82c-0.56-0.36-0.56-0.98,0.01-1.35c1.39-0.92,2.89-1.58,4.54-1.9 c0.08-0.02,0.16-0.04,0.27-0.06c-0.12-0.1-0.21-0.19-0.3-0.27c-1.77-1.54-2.99-3.46-3.88-5.62c-0.45-1.09-0.8-2.2-1.02-3.36 c-0.11-0.59,0.33-1.05,0.91-0.93c2.96,0.61,5.64,1.79,7.93,3.81c0.13,0.12,0.26,0.24,0.41,0.38c0.01-0.05,0.02-0.08,0.02-0.11 c-0.19-3.94,0.93-7.55,2.85-10.94c0.35-0.62,1.04-0.62,1.4,0c1.41,2.44,2.37,5.05,2.72,7.86c0.13,1.04,0.14,2.1,0.2,3.14 c-0.03,0.02,0,0.01,0.02-0.01c2.07-1.97,4.55-3.17,7.28-3.9c0.33-0.09,0.67-0.17,1-0.23c0.54-0.1,1.01,0.34,0.9,0.88 c-0.68,3.27-2.02,6.2-4.42,8.59c-0.12,0.12-0.26,0.24-0.39,0.36c-0.12,0.11-0.25,0.22-0.35,0.31c0.73,0.22,1.46,0.42,2.17,0.67 c0.9,0.32,1.75,0.77,2.55,1.3c0.61,0.41,0.62,1.02,0.01,1.41c-2.02,1.3-4.19,2.11-6.62,2.06c-1.66-0.04-3.21-0.53-4.7-1.26 C13.82,21.59,13.73,21.55,13.6,21.48z M12.83,2.37c-1.24,2.6-2.05,5.25-2.05,8.11c0,2.85,0.8,5.5,2.05,8.07 C15.58,13.14,15.55,7.78,12.83,2.37z M1.78,9.08c0.71,2.43,1.75,4.61,3.5,6.4c1.69,1.72,3.77,2.77,6.08,3.51 c-0.03-0.09-0.05-0.13-0.06-0.16c-0.64-1.35-1.14-2.75-1.5-4.21c-0.02-0.08-0.05-0.16-0.1-0.23c-0.56-0.83-1.2-1.59-1.96-2.25 c-1.56-1.35-3.36-2.25-5.31-2.87C2.22,9.21,2.03,9.15,1.78,9.08z M14.35,18.98c2.63-0.85,4.97-2.09,6.73-4.24 c1.36-1.66,2.23-3.56,2.78-5.64c-0.68,0.2-1.34,0.41-1.98,0.68c-2.33,0.96-4.34,2.35-5.78,4.47c-0.1,0.15-0.17,0.34-0.23,0.52 c-0.27,0.83-0.51,1.66-0.8,2.49C14.86,17.83,14.6,18.38,14.35,18.98z M23.42,20.12c-1.39-0.72-2.82-1.18-4.36-1.24 c-0.42-0.02-0.79,0.07-1.17,0.27c-0.64,0.33-1.31,0.6-1.97,0.89c-0.33,0.14-0.67,0.24-1.01,0.37 C17.08,21.78,21.37,21.64,23.42,20.12z M2.27,20.09c0.01,0.03,0.01,0.06,0.02,0.09C3.61,20.85,5,21.33,6.5,21.39 c1.34,0.06,3.67-0.5,4.27-1c-1.18-0.38-2.31-0.86-3.39-1.45c-0.09-0.05-0.21-0.05-0.32-0.05c-1.07-0.03-2.1,0.15-3.11,0.51 C3.38,19.6,2.83,19.85,2.27,20.09z" class="st6"/></g></g></svg>