<svg xmlns="http://www.w3.org/2000/svg" xmlns:xlink="http://www.w3.org/1999/xlink" id="Layer_1" x="0" y="0" version="1.1" viewBox="0 0 22.52 19.78" xml:space="preserve" style="enable-background:new 0 0 22.52 19.78"><style type="text/css">.st7{fill:#243b41}</style><g id="FnJdNk.tif_00000059285857591287112920000009406401192933156528_"><g><path d="M4.3,8.47c0.88,0,1.75,0,2.58,0c-1.15,1.15-2.31,2.31-3.45,3.45C2.31,10.81,1.16,9.65,0,8.49 c0.93,0,1.88,0,2.84,0c0.49-2.89,1.9-5.17,4.3-6.81c1.82-1.24,3.84-1.78,6.03-1.66c4.81,0.27,8.57,3.9,9.24,8.46 c0.67,4.58-1.99,9.07-6.34,10.68c-4.29,1.59-8.82,0-11.23-3.19c0.36-0.28,0.72-0.57,1.1-0.86c1.5,1.85,3.41,2.94,5.76,3.2 c2.02,0.22,3.9-0.24,5.6-1.36c3.26-2.14,4.62-6.3,3.28-9.96C19.24,3.3,15.51,1,11.66,1.47C7.6,1.95,4.81,5.13,4.3,8.47z" class="st7"/><path d="M11.22,5.66c0.48,0,0.93,0,1.41,0c0,0.09,0,0.17,0,0.25c0,1.39,0,2.78,0,4.17c0,0.16,0.04,0.27,0.16,0.38 c1.05,1.05,2.1,2.1,3.13,3.13c-0.33,0.33-0.66,0.66-1,1c-0.6-0.6-1.22-1.22-1.84-1.84c-0.54-0.54-1.07-1.07-1.61-1.61 c-0.16-0.16-0.25-0.34-0.25-0.57c0-1.6,0-3.19,0-4.79C11.22,5.75,11.22,5.71,11.22,5.66z" class="st7"/></g></g></svg>