<svg xmlns="http://www.w3.org/2000/svg" xmlns:xlink="http://www.w3.org/1999/xlink" id="Layer_1" x="0" y="0" version="1.1" viewBox="0 0 18.44 23.91" xml:space="preserve" style="enable-background:new 0 0 18.44 23.91"><style type="text/css">.st6{fill:#fff}</style><g id="itnJtH.tif_00000057144795952567820570000002371709362316251292_"><g><path d="M18.44,14.7c-0.03,2.45-0.82,4.42-2.31,6.08c-1.92,2.14-4.35,3.22-7.23,3.12c-2.68-0.09-4.91-1.21-6.67-3.22 c-1.16-1.32-1.9-2.87-2.13-4.62c-0.28-2.07,0.1-4.01,1.32-5.73c2.34-3.3,4.7-6.59,7.05-9.88C8.8-0.03,9.3-0.14,9.72,0.18 c0.09,0.07,0.17,0.16,0.24,0.26c2.42,3.39,4.86,6.78,7.26,10.19c0.61,0.87,0.93,1.88,1.1,2.93C18.38,14,18.41,14.45,18.44,14.7z M9.22,2.31c-0.07,0.1-0.13,0.17-0.18,0.23C7.39,4.86,5.74,7.18,4.08,9.49C3.57,10.22,3,10.91,2.55,11.67 c-0.84,1.42-1.08,2.97-0.73,4.59c0.94,4.4,5.56,7.01,9.82,5.56c2.92-0.99,5-3.75,5.1-6.77c0.04-1.38-0.32-2.65-1.12-3.78 c-1.61-2.26-3.22-4.52-4.84-6.78C10.27,3.78,9.75,3.06,9.22,2.31z" class="st6"/><path d="M9.35,20.07c-0.13-0.01-0.29-0.01-0.45-0.05c-0.37-0.11-0.6-0.46-0.57-0.86c0.02-0.38,0.3-0.69,0.68-0.76 c0.34-0.06,0.7-0.06,1.04-0.14c1.55-0.37,2.66-1.73,2.74-3.32c0-0.09,0.01-0.19,0.03-0.28c0.06-0.48,0.43-0.78,0.9-0.75 c0.45,0.03,0.77,0.4,0.77,0.87c0,2.58-1.99,4.87-4.54,5.22C9.75,20.03,9.57,20.05,9.35,20.07z" class="st6"/></g></g></svg>