<?xml version="1.0" encoding="UTF-8"?>
<svg id="Layer_2" data-name="Layer 2" xmlns="http://www.w3.org/2000/svg" viewBox="0 0 23.01 23">
  <defs>
    <style>
      .cls-1 {
        opacity: .35;
      }

      .cls-2 {
        fill: #243b41;
      }
    </style>
  </defs>
  <g id="Layer_1-2" data-name="Layer 1">
    <g id="EB2a8N.tif" class="cls-1">
      <path class="cls-2" d="M12.66,12.66v.31c0,2.91,0,5.81,0,8.72,0,.17-.01,.35-.06,.51-.15,.52-.64,.84-1.18,.81-.53-.04-.97-.45-1.04-.98-.02-.12-.02-.24-.02-.36,0-2.89,0-5.78,0-8.67,0-.1,0-.19,0-.33h-.29c-2.93,0-5.86,0-8.79,0-.66,0-1.11-.33-1.25-.91-.14-.62,.28-1.26,.91-1.37,.13-.02,.27-.03,.4-.03,2.89,0,5.78,0,8.67,0h.33c0-.1,0-.2,0-.29,0-2.93,0-5.86,0-8.78,0-.66,.33-1.11,.91-1.25,.63-.14,1.26,.28,1.37,.91,.02,.13,.03,.27,.03,.4,0,2.89,0,5.78,0,8.67v.33c.1,0,.2,0,.29,0,2.93,0,5.86,0,8.79,0,.66,0,1.11,.33,1.25,.91,.14,.63-.28,1.26-.91,1.37-.13,.02-.27,.03-.4,.03-2.89,0-5.78,0-8.67,0h-.33Z"/>
    </g>
  </g>
</svg>