<svg xmlns="http://www.w3.org/2000/svg" xmlns:xlink="http://www.w3.org/1999/xlink" id="Layer_1" x="0" y="0" version="1.1" viewBox="0 0 26.22 24.24" xml:space="preserve" style="enable-background:new 0 0 26.22 24.24"><style type="text/css">.st6{fill:#fff}</style><g id="jzhSBc.tif_00000168084861254266026970000001418992424823977143_"><g><path d="M5.15,2.68c-0.6-0.75-0.63-1.49-0.13-2.12C5.36,0.16,5.79,0,6.31,0c2.03,0,4.06,0,6.09,0 c2.51,0,5.02,0,7.53,0c0.88,0,1.49,0.51,1.62,1.36c0.08,0.51-0.11,0.94-0.47,1.31c0.23,0.19,0.46,0.36,0.68,0.55 c2.44,2.11,3.87,4.77,4.32,7.95c0.5,3.6-0.28,6.9-2.42,9.85c-0.88,1.22-1.98,2.23-3.25,3.04c-0.15,0.09-0.35,0.15-0.52,0.15 c-4.51,0.01-9.03,0.01-13.54,0c-0.17,0-0.37-0.06-0.52-0.16C2.69,22,0.84,19.1,0.21,15.43c-0.58-3.38,0.03-6.55,1.87-9.46 c0.76-1.2,1.72-2.23,2.84-3.1C4.99,2.81,5.06,2.75,5.15,2.68z M13.12,1.03c-2.24,0-4.47,0-6.71,0c-0.47,0-0.71,0.17-0.72,0.51 C5.69,1.88,5.93,2.05,6.42,2.05c1.74,0,3.48,0,5.22,0c0.43,0,0.65,0.17,0.66,0.51c0,0.35-0.22,0.52-0.67,0.53 c-0.05,0-0.1,0-0.15,0c-1.63,0-3.26,0-4.89,0.01c-0.14,0-0.3,0.05-0.42,0.13C5.16,3.9,4.28,4.71,3.55,5.68 C1.34,8.61,0.6,11.9,1.26,15.49c0.59,3.19,2.23,5.74,4.91,7.58c0.12,0.08,0.3,0.14,0.45,0.14c4.33,0.01,8.67,0.01,13,0 c0.15,0,0.32-0.06,0.44-0.14c0.99-0.67,1.86-1.47,2.59-2.42c2.11-2.78,2.9-5.91,2.39-9.35c-0.51-3.48-2.23-6.24-5.17-8.2 c-0.23-0.16-0.43-0.33-0.36-0.64c0.07-0.3,0.3-0.39,0.57-0.41c0.02,0,0.03,0,0.05-0.01c0.22-0.06,0.38-0.26,0.38-0.49 c0-0.22-0.15-0.44-0.37-0.49c-0.12-0.03-0.25-0.03-0.38-0.03C17.56,1.03,15.34,1.03,13.12,1.03z" class="st6"/><path d="M13.12,21.25c-1.78,0-3.55,0-5.33,0c-0.24,0-0.43-0.06-0.62-0.21c-2.22-1.72-3.45-3.99-3.76-6.76 c-0.25-2.23,0.22-4.31,1.43-6.21c0.2-0.32,0.33-0.37,0.7-0.28c1.5,0.36,3.03,0.42,4.55,0.26c1.65-0.17,3.3-0.4,4.95-0.59 c1.83-0.21,3.66-0.24,5.48,0.15c0.52,0.11,0.85,0.36,1.12,0.82c2.42,4.2,1.26,9.83-2.66,12.67c-0.13,0.1-0.33,0.14-0.5,0.14 C16.68,21.26,14.9,21.25,13.12,21.25z" class="st6"/></g></g></svg>