<svg xmlns="http://www.w3.org/2000/svg" xmlns:xlink="http://www.w3.org/1999/xlink" id="Layer_1" x="0" y="0" version="1.1" viewBox="0 0 22.63 22.62" xml:space="preserve" style="enable-background:new 0 0 22.63 22.62"><style type="text/css">.st7{fill:#243b41}</style><g id="tdNTRD.tif_00000148645343562067300480000009812726619143857334_"><g><path d="M5.11,2.21c0.83,0,1.36,0.27,1.79,0.75c0.15,0.17,0.26,0.18,0.46,0.08c0.31-0.16,0.64-0.29,0.98-0.4 c0.14-0.05,0.2-0.11,0.19-0.27c-0.03-0.54,0.06-1.06,0.39-1.5c0.41-0.55,0.96-0.85,1.64-0.86C11.18,0,11.8-0.02,12.41,0.05 c0.92,0.11,1.69,0.98,1.67,1.91c-0.01,0.47,0.11,0.71,0.57,0.8c0.23,0.05,0.44,0.17,0.65,0.28c0.16,0.09,0.26,0.08,0.39-0.06 c0.33-0.38,0.74-0.65,1.24-0.74c0.65-0.12,1.25,0.02,1.75,0.47c0.43,0.38,0.83,0.79,1.22,1.22c0.73,0.8,0.68,2.02-0.08,2.83 c-0.33,0.35-0.33,0.35-0.14,0.79c0.12,0.27,0.22,0.54,0.32,0.82c0.04,0.12,0.09,0.16,0.22,0.16c0.24,0,0.49,0,0.72,0.04 c0.96,0.18,1.65,1.01,1.67,1.98c0.01,0.6,0.04,1.21-0.04,1.81c-0.13,1.01-0.98,1.72-2,1.74c-0.51,0.01-0.5,0.01-0.69,0.49 c-0.1,0.25-0.2,0.51-0.33,0.75c-0.07,0.14-0.06,0.23,0.06,0.34c0.38,0.34,0.67,0.74,0.76,1.26c0.12,0.67-0.03,1.28-0.49,1.78 c-0.35,0.39-0.72,0.75-1.1,1.11c-0.85,0.8-2.08,0.79-2.92-0.01c-0.34-0.33-0.34-0.32-0.78-0.13c-0.26,0.11-0.53,0.23-0.8,0.31 c-0.14,0.05-0.2,0.11-0.19,0.26c0.03,0.49-0.04,0.97-0.32,1.39c-0.34,0.51-0.8,0.88-1.41,0.92c-0.7,0.05-1.42,0.08-2.11,0 c-1.01-0.12-1.71-0.98-1.73-2.01c-0.01-0.49-0.01-0.49-0.48-0.68c-0.26-0.1-0.52-0.21-0.77-0.34c-0.14-0.07-0.22-0.06-0.32,0.05 c-0.35,0.39-0.75,0.68-1.28,0.77c-0.66,0.12-1.26-0.03-1.76-0.48c-0.4-0.37-0.79-0.75-1.16-1.15C2.01,17.92,2,16.7,2.79,15.91 c0.3-0.3,0.37-0.52,0.14-0.88c-0.15-0.23-0.22-0.51-0.31-0.78c-0.04-0.12-0.1-0.16-0.22-0.16c-0.24,0-0.49,0-0.72-0.04 c-0.95-0.18-1.65-1.01-1.67-1.98c-0.01-0.6-0.04-1.21,0.04-1.81c0.13-1.01,0.98-1.72,2-1.74c0.51-0.01,0.5-0.01,0.69-0.49 c0.1-0.26,0.21-0.52,0.34-0.77c0.06-0.13,0.06-0.2-0.05-0.3C2.64,6.62,2.34,6.22,2.25,5.7C2.13,5.03,2.27,4.43,2.72,3.93 c0.38-0.42,0.79-0.82,1.2-1.2C4.3,2.37,4.77,2.21,5.11,2.21z M11.33,1.33c-0.23,0-0.46,0-0.68,0c-0.48,0.01-0.79,0.31-0.79,0.78 c0,0.3,0,0.6,0,0.91c-0.01,0.36-0.18,0.6-0.53,0.69C8.63,3.9,7.99,4.17,7.37,4.52c-0.35,0.2-0.61,0.16-0.9-0.13 C6.26,4.19,6.06,3.97,5.84,3.77c-0.34-0.33-0.77-0.33-1.1,0C4.42,4.09,4.09,4.41,3.78,4.74c-0.33,0.33-0.33,0.76,0,1.1 c0.2,0.21,0.42,0.42,0.62,0.63c0.29,0.29,0.33,0.56,0.12,0.92c-0.34,0.6-0.61,1.24-0.79,1.91C3.61,9.68,3.39,9.84,2.98,9.85 c-0.29,0-0.59,0-0.88,0c-0.45,0.01-0.76,0.32-0.76,0.77c-0.01,0.46,0,0.91,0,1.37c0,0.47,0.32,0.78,0.79,0.78 c0.29,0,0.59,0,0.88,0c0.38,0.01,0.61,0.18,0.71,0.54c0.19,0.68,0.45,1.32,0.8,1.93c0.2,0.36,0.16,0.62-0.13,0.92 c-0.21,0.21-0.42,0.41-0.62,0.63c-0.32,0.33-0.32,0.76,0,1.09c0.32,0.33,0.65,0.66,0.98,0.98c0.32,0.32,0.76,0.32,1.09,0 c0.21-0.2,0.42-0.42,0.63-0.62c0.3-0.29,0.56-0.33,0.91-0.13c0.61,0.35,1.25,0.61,1.93,0.8c0.38,0.1,0.54,0.33,0.55,0.73 c0,0.3,0,0.6,0,0.91c0.01,0.44,0.32,0.75,0.76,0.75c0.46,0.01,0.93,0.01,1.39,0c0.46-0.01,0.77-0.32,0.77-0.78c0-0.3,0-0.6,0-0.91 c0.01-0.36,0.18-0.6,0.53-0.69c0.68-0.19,1.33-0.46,1.95-0.81c0.35-0.2,0.61-0.16,0.9,0.12c0.21,0.21,0.41,0.42,0.63,0.62 c0.34,0.32,0.77,0.33,1.1,0c0.33-0.32,0.65-0.64,0.97-0.97c0.33-0.33,0.33-0.76,0-1.1c-0.2-0.21-0.42-0.42-0.62-0.63 c-0.29-0.29-0.33-0.55-0.12-0.92c0.34-0.6,0.61-1.24,0.79-1.91c0.11-0.39,0.33-0.55,0.74-0.56c0.29,0,0.59,0,0.88,0 c0.45-0.01,0.76-0.32,0.76-0.77c0.01-0.46,0-0.91,0-1.37c0-0.47-0.32-0.78-0.8-0.78c-0.29,0-0.59,0-0.88,0 c-0.38-0.01-0.61-0.18-0.71-0.54c-0.19-0.68-0.45-1.32-0.8-1.93c-0.2-0.36-0.16-0.62,0.13-0.91c0.2-0.2,0.41-0.4,0.61-0.61 c0.33-0.35,0.34-0.78,0-1.12c-0.31-0.32-0.63-0.64-0.95-0.95c-0.34-0.34-0.77-0.34-1.12,0c-0.21,0.2-0.41,0.42-0.63,0.62 c-0.29,0.28-0.55,0.31-0.9,0.12C14.64,4.17,14,3.9,13.32,3.72c-0.37-0.1-0.54-0.33-0.55-0.73c0-0.3,0-0.6,0-0.91 c-0.01-0.44-0.32-0.74-0.76-0.75C11.79,1.33,11.56,1.33,11.33,1.33z" class="st7"/><path d="M11.33,16.23c-2.71,0.01-4.92-2.18-4.93-4.9c-0.01-2.72,2.19-4.93,4.92-4.93c2.72,0,4.91,2.19,4.92,4.91 C16.24,14.02,14.05,16.22,11.33,16.23z M11.32,14.9c1.99,0,3.59-1.61,3.58-3.6c0-1.99-1.61-3.59-3.6-3.59 c-1.99,0-3.59,1.61-3.58,3.6C7.73,13.3,9.33,14.91,11.32,14.9z" class="st7"/></g></g></svg>