<svg xmlns="http://www.w3.org/2000/svg" xmlns:xlink="http://www.w3.org/1999/xlink" id="Layer_2" data-name="Layer 2" viewBox="0 0 65 74.45"><defs><style>.cls-1{fill:#fafaf8}.cls-2{fill:#252626}.cls-3{fill:#4e4e4e}.cls-4{filter:url(#drop-shadow-1)}</style><filter id="drop-shadow-1" filterUnits="userSpaceOnUse"><feOffset dx="0" dy="104.81"/><feGaussianBlur result="blur" stdDeviation="87.34"/><feFlood flood-color="#1d357c" flood-opacity=".2"/><feComposite in2="blur" operator="in"/><feComposite in="SourceGraphic"/></filter></defs><g id="Layer_1-2" data-name="Layer 1"><g class="cls-4"><g><path d="M.13,44.31c-.31-.67,.22-1.88-.08-3.04-.17-.67,.17-1.29,.24-1.94,.29-2.69-.4-5.35-.21-8.01,.19-2.58,.53-5.16,1.27-7.69,.53-1.82,1.16-3.59,1.96-5.26,.8-1.67,1.79-3.27,2.9-4.81,1.08-1.5,2.25-2.91,3.54-4.2,1.32-1.32,2.73-2.57,4.35-3.55,.82-.5,1.6-1.04,2.44-1.52,1.87-1.08,3.84-1.87,5.86-2.61,1.72-.63,3.47-1.01,5.24-1.3,1.81-.29,3.67-.43,5.52-.35,1.77,.08,3.53,.21,5.27,.56,2.04,.4,4.01,.96,5.95,1.71,1.73,.67,3.32,1.57,4.96,2.39,.83,.41,1.57,.99,2.29,1.53,2.4,1.77,4.63,3.81,6.42,6.2,1.57,2.1,2.96,4.33,4.02,6.79,.73,1.7,1.4,3.42,1.86,5.18,.46,1.76,.78,3.58,.88,5.44,.1,1.84,.2,3.67-.04,5.48-.34,2.62,.41,5.2,.18,7.78-.17,1.86-.34,3.72-.74,5.58-.4,1.81-.91,3.57-1.54,5.29-.63,1.71-1.44,3.37-2.48,4.9-.56,.82-1.17,1.63-1.65,2.47-.55,.96-1.31,1.75-2.02,2.49-1.79,1.87-3.7,3.61-5.92,5.04-2.57,1.66-5.24,2.93-8.12,3.95-3.25,1.16-6.6,1.64-9.96,1.64-3.37,0-6.71-.51-9.97-1.62-2.53-.86-4.98-1.89-7.19-3.29-2.21-1.4-4.26-3.05-6.11-4.99-1.82-1.91-3.39-3.96-4.73-6.16-.96-1.58-1.72-3.31-2.38-5.09-.65-1.74-1.01-3.53-1.51-5.29-.29-1.03-.3-2.13-.5-3.69ZM45.85,18.05c0,.47,0,.94,0,1.41-.77-.41-1.6-.19-2.41-.23-.31-.01-.66,0-.76,.39-.09,.38,.23,.55,.49,.71,.73,.45,1.43,.93,1.8,1.76,.14,.31,.43,.47,.77,.35,.32-.11,.32-.41,.32-.68,.02-.78,.03-1.56-.23-2.31,.39-.08,.78-.16,1.18-.23-.31,.86-.25,1.75-.2,2.64,.02,.29,.15,.53,.47,.59,.26,.05,.47-.08,.57-.3,.41-.87,1.06-1.51,1.86-2.02,.2-.13,.35-.34,.28-.59-.09-.34-.4-.32-.66-.32-.77,0-1.55,.01-2.32,.02,0-.31,0-.63,0-.94,.81,0,1.63,0,2.44,0,.24,0,.47-.06,.55-.33,.07-.25,0-.48-.23-.6-.89-.46-1.53-1.16-2.07-1.98-.13-.2-.33-.35-.59-.29-.35,.08-.33,.39-.33,.65,0,.77,0,1.55,0,2.32-.31,0-.63,0-.94,0,0-.77,.01-1.55,0-2.32,0-.26,.02-.57-.34-.65-.26-.06-.45,.11-.56,.32-.47,.88-1.15,1.54-2.01,2.03-.21,.12-.36,.31-.28,.58,.06,.21,.26,.29,.46,.28,.92-.04,1.86,.21,2.74-.24Zm-26.43,28.76c0-.31,0-.63,0-.94,.82,0,1.64,0,2.45,0,.28,0,.58-.04,.69-.33,.13-.33-.13-.49-.38-.63-.84-.46-1.5-1.1-1.99-1.93-.15-.25-.37-.42-.68-.32-.32,.11-.31,.4-.33,.68-.06,.86,.06,1.71,.23,2.55-.39-.27-.78-.07-1.18,0,.27-.78,.24-1.6,.21-2.41-.01-.36-.05-.73-.49-.81-.37-.07-.55,.21-.69,.49-.37,.75-.92,1.33-1.66,1.72-.3,.16-.71,.32-.54,.76,.16,.43,.57,.43,.98,.39,.73-.07,1.46-.1,2.19-.15,0,.31,0,.63,0,.94-.82,0-1.63,0-2.45,0-.28,0-.57,.04-.68,.34-.12,.33,.15,.49,.38,.63,.8,.49,1.55,1.04,1.99,1.92,.13,.27,.36,.42,.67,.32,.32-.11,.32-.41,.32-.68,0-.85,.07-1.71-.24-2.54,.39,.07,.78,.27,1.18,0,0,.85-.02,1.7-.01,2.54,0,.26-.02,.58,.32,.66,.32,.08,.5-.15,.63-.4,.43-.8,1.05-1.42,1.84-1.87,.24-.14,.5-.3,.41-.62-.1-.4-.47-.33-.77-.33-.81,0-1.62,.01-2.43,.02Zm-.7-26.65c0-.39,0-.78,0-1.18,.78,0,1.55,0,2.33-.03,.28,0,.54-.1,.65-.4,.11-.31-.04-.53-.29-.68-.84-.49-1.62-1.06-2.14-1.91-.13-.21-.38-.28-.62-.18-.19,.08-.33,.26-.28,.46,.25,.9-.08,1.87,.36,2.74-.39,0-.78,0-1.18,0,0-.81,0-1.63,0-2.44,0-.32-.05-.65-.44-.72-.32-.05-.5,.2-.62,.44-.42,.86-1.01,1.55-1.82,2.07-.2,.13-.38,.32-.31,.57,.09,.34,.4,.32,.67,.32,.85,0,1.71,.05,2.53-.25,0,.31,0,.63,0,.94-.73,.08-1.45,.15-2.18,.23-.33,.03-.74-.06-.82,.43-.07,.39,.25,.52,.52,.67,.74,.43,1.45,.88,1.9,1.65,.15,.26,.37,.56,.74,.37,.33-.17,.31-.51,.29-.82-.06-.77-.14-1.53-.21-2.3,.31,0,.63,0,.94,0,0,.73,0,1.46,.01,2.2,0,.32,.05,.64,.4,.76,.4,.14,.54-.18,.69-.45,.43-.78,.93-1.51,1.73-1.97,.24-.14,.45-.36,.33-.66-.12-.29-.41-.32-.69-.33-.86-.03-1.69,.12-2.47,.47Zm27.83,25.95c-.89,.04-1.79-.12-2.66,.21-.22,.08-.46,.16-.5,.43-.04,.28,.17,.41,.39,.51,.88,.38,1.6,.94,2.12,1.76,.13,.21,.31,.38,.57,.31,.34-.09,.31-.4,.32-.67,0-.85,.04-1.71-.25-2.54,.39,0,.78,0,1.18,0-.28,.85,.07,1.69,.01,2.53-.02,.27,.07,.56,.4,.63,.34,.06,.46-.23,.59-.46,.48-.81,1.05-1.54,1.86-2.05,.2-.13,.38-.31,.32-.57-.08-.34-.39-.33-.66-.33-.85,0-1.71-.05-2.53,.25v-.94c.81-.08,1.61-.16,2.41-.23,.28-.03,.55-.07,.59-.42,.04-.33-.18-.5-.43-.61-.83-.37-1.51-.92-1.99-1.71-.14-.22-.31-.48-.64-.4-.38,.09-.42,.43-.4,.74,.06,.81,.15,1.61,.22,2.41-.31,0-.63,0-.94,0-.02-.78-.01-1.56-.06-2.33-.02-.26-.13-.55-.43-.64-.33-.1-.53,.11-.64,.37-.37,.89-.95,1.59-1.79,2.08-.26,.15-.4,.38-.27,.69,.11,.26,.35,.28,.59,.29,.9,.04,1.78-.09,2.61-.46v1.18ZM5.86,51.01s-.08-.1-.12-.14c0,.05-.01,.1-.02,.15,.05-.01,.11-.03,.16-.04-.33,.4,.02,.71,.15,1.03,4.52,10.85,12.57,17.1,24.3,18.19,12.42,1.16,24.21-6.38,28.61-18.04,.13-.35,.41-.69,.19-1.1-.32,.01-.49,.24-.6,.48-.86,1.76-2.34,3.02-3.68,4.34-1.48,1.46-3.18,2.75-4.94,3.86-.91,.57-1.84,1.2-2.9,1.61-.94,.37-1.86,.87-2.82,1.24-1,.38-2,.84-3.04,1.04-1.83,.36-3.64,.8-5.52,.99-1.87,.2-3.76,.23-5.59,.08-2.57-.21-5.13-.66-7.61-1.56-.82-.3-1.63-.65-2.46-.94-1.04-.36-2.08-.8-3.01-1.38-1.55-.97-3.12-1.88-4.54-3.08-1.64-1.38-3.17-2.81-4.59-4.42-.67-.76-1.05-1.78-1.97-2.32ZM28.89,20.62c-.66,0-1.32,0-1.99,0-.51,0-1.13-.05-1.11,.68,.02,.69,.64,.69,1.14,.7,1.32,.02,2.65,.04,3.97,0,.97-.03,1.02,.56,.86,1.22-.16,.64-.76,.39-1.19,.42-3.6,.22-6.99,1.13-9.94,3.28-1.85,1.35-3.23,3.05-3.33,5.48-.13,3.05,1.51,5.14,3.96,6.52,7.14,4.04,14.45,4.02,21.77,.48,1.86-.9,3.36-2.29,4.2-4.22,1.28-2.95,.19-6.14-2.79-8.24-3.08-2.17-6.55-3.18-10.29-3.3-.58-.02-.97-.11-.96-.83,0-.72,.4-.82,.97-.81,1.36,.01,2.73,0,4.09,0,.52,0,.97-.22,.96-.79-.01-.58-.53-.58-.97-.58-1.44,0-2.88,0-4.32,0-.39,0-.7-.09-.7-.57,0-.48,.32-.57,.71-.57,.86,0,1.71,0,2.57-.01,.36,0,.77-.03,.79-.5,.02-.47-.3-.68-.76-.69-.62,0-1.25,0-1.87,0-.72,0-1.54,.19-1.55-.99,0-.3-.29-.56-.66-.54-.29,.02-.6,.19-.59,.47,.07,1.29-.83,1.05-1.58,1.06-.51,0-1.01,0-1.52,0-.46,.01-1.06-.08-1.09,.57-.02,.66,.58,.61,1.04,.62,.74,.01,1.48,0,2.22,0,.4,0,.82-.01,.84,.55,.01,.56-.39,.59-.8,.59-.7,0-1.4,0-2.1,0Zm3.64,26.61c.28-.07,.47-.31,.62-.59,.56-1.03,1.29-1.93,2.15-2.75,.18-.17,.53-.37,.32-.66-.2-.28-.58-.21-.86-.08-.24,.11-.47,.3-.61,.51-.34,.52-.59,.48-.94,0-.24-.32-.6-.83-1.03-.35-.64,.73-1.11,.9-1.71-.04-.21-.33-.77-.37-1.05-.07-.28,.31,.14,.55,.35,.73,.86,.76,1.45,1.72,2.06,2.67,.16,.25,.23,.6,.7,.6Zm9.26,8.68c.08,0,.16,0,.23-.03,2.14-.95,4.16-2.11,6.04-3.5,.23-.17,.36-.43,.14-.71-.2-.27-.45-.47-.79-.26-.36,.22-.7,.49-1.05,.73-1.48,1.02-3.01,1.93-4.69,2.6-.32,.13-.67,.34-.62,.76,.05,.39,.41,.41,.73,.42Zm-9.09,1.64c.97-.04,1.94,.12,2.9-.18,.38-.11,.85-.14,.83-.64-.03-.6-.56-.6-.98-.55-2.05,.27-4.1,.31-6.15-.01-.38-.06-.86-.03-.88,.5-.02,.47,.36,.61,.8,.66,1.16,.14,2.31,.28,3.49,.21ZM17.19,13.36c.09-.04,.25-.06,.37-.15,1.8-1.3,3.74-2.34,5.74-3.29,.37-.17,.7-.44,.42-.9-.23-.39-.59-.29-.92-.12-1.21,.61-2.44,1.19-3.62,1.85-.77,.43-1.49,.97-2.21,1.5-.26,.19-.4,.47-.29,.82,.07,.22,.25,.27,.51,.29Zm38.95,9.46c-.04-.15-.07-.38-.17-.59-.84-1.88-1.86-3.65-3.09-5.31-.25-.33-.55-.66-.95-.39-.46,.3-.28,.76-.03,1.12,.41,.61,.87,1.18,1.28,1.79,.74,1.1,1.3,2.29,1.78,3.51,.14,.36,.39,.72,.86,.62,.34-.07,.29-.41,.3-.76Zm-46.71,.58c.29-.03,.48-.17,.57-.4,.78-2.07,2-3.87,3.3-5.62,.18-.24,.35-.57,.01-.83-.33-.25-.7-.21-.94,.09-1.45,1.8-2.6,3.78-3.43,5.94-.14,.37-.07,.8,.49,.81Zm47.4,11.26c0,.43-.02,.63,0,.82,.04,.43-.2,1.08,.48,1.11,.53,.03,.58-.61,.62-.98,.14-1.19,.26-2.4,.26-3.6,0-.93-.14-1.86-.27-2.78-.06-.4-.29-.76-.8-.62-.45,.12-.38,.45-.37,.83,.08,1.81,.45,3.63,.07,5.21Zm-48.4,7.12c.03,.13,.04,.33,.11,.51,.8,1.9,1.93,3.62,3.13,5.29,.2,.28,.5,.74,.94,.45,.51-.33,.19-.78-.05-1.11-.83-1.17-1.55-2.41-2.21-3.69-.32-.62-.61-1.25-.95-1.86-.13-.24-.37-.43-.68-.33-.34,.11-.28,.42-.29,.75Zm47.95,.38c-.01-.42,.08-.81-.33-.88-.4-.08-.65,.24-.78,.57-.54,1.34-1.18,2.61-2.02,3.79-.38,.54-.78,1.06-1.14,1.61-.22,.34-.36,.77,.01,1.05,.36,.27,.67-.07,.87-.34,.52-.68,1.03-1.36,1.48-2.08,.75-1.22,1.5-2.44,1.91-3.72ZM42.2,8.99c-.44-.04-.68,.09-.75,.39-.11,.48,.23,.74,.6,.88,1.92,.7,3.63,1.76,5.22,3.02,.32,.25,.69,.52,1.01,.12,.31-.38,.04-.75-.27-1.01-1.38-1.17-2.98-1.96-4.57-2.78-.45-.23-.9-.45-1.25-.62ZM16.74,51.58c-.34,.02-.5,.17-.55,.43-.08,.4,.12,.65,.43,.87,1.75,1.24,3.63,2.24,5.57,3.14,.36,.17,.83,.29,1.03-.14,.26-.54-.26-.77-.63-.91-1.92-.71-3.6-1.81-5.21-3.03-.21-.16-.47-.26-.65-.35ZM8.24,29.58c-.19-.48,.33-1.33-.44-1.38-.85-.05-.67,.86-.76,1.43-.3,1.81-.1,3.63,.02,5.44,.03,.45,.13,1.08,.68,1.06,.67-.03,.52-.72,.45-1.12-.33-1.82-.21-3.63,.05-5.43ZM32.58,7.39c-1.08,0-2.16-.03-3.24,.02-.34,.02-.85,.14-.74,.69,.09,.47,.53,.38,.86,.37,1.23-.06,2.47-.19,3.7-.2,.88,0,1.77,.15,2.65,.21,.31,.02,.69,0,.77-.36,.11-.48-.33-.54-.65-.65-1.1-.35-2.23-.09-3.35-.08Zm22.52,20.1c-.3-.65-.73-1.24-.98-1.95-.19-.53,.3-1.5-.55-1.55-.82-.05-.81,1-1.16,1.55-.3,.47-.49,1.08,.05,1.47,.59,.42,1.28,.72,1.95,1.01,.39,.16,.67-.04,.69-.53Zm-13.23,24.34c-.28-1.1-.5-2.23-.88-3.3-.16-.47-.61-.34-.92,.03-1.39,1.66-1.23,2.48,.68,3.42,.24,.12,.48,.27,.74,.33,.4,.09,.55-.16,.38-.48Zm-14.49,.58c-.68,.07-1.26,.55-1.88,.94-.27,.17-.53,.37-.41,.74,.12,.36,.44,.42,.75,.41,.95-.04,1.84,.09,2.67,.6,.24,.15,.53,.15,.66-.2,.21-.53-1.13-2.46-1.8-2.49Zm-1.28-37.79c-.02-.69-2.14-2.08-2.66-1.8-.29,.16-.35,.45-.2,.7,.53,.88,.88,1.79,.91,2.84,.01,.46,.48,.72,.84,.33,.56-.6,.82-1.39,1.1-2.08Zm8.13,.54c.61-.37,1.25-.74,1.86-1.14,.47-.31,.51-.79,.27-1.24-.29-.55-.66-1.05-1.01-1.57-.13-.19-.32-.37-.58-.29-.26,.07-.37,.3-.36,.54,.04,1.03-.16,2-.63,2.93-.19,.37-.06,.68,.45,.77ZM13.12,29.26c-.75,.21-1.47,.74-2.1,1.36-.35,.34-.06,.71,.36,.71,1.1,.02,2.17,.08,3.17,.62,.29,.15,.54-.01,.59-.35,.08-.52-1.36-2.32-2.01-2.34Zm.4,7.99c.98-.08,.97-1.2,1.44-1.87,.17-.25,.32-.57,0-.83-.25-.2-.52-.12-.76,.04-.76,.49-1.57,.81-2.5,.79-.28,0-.54,.11-.62,.42-.09,.32,.09,.53,.34,.66,.62,.31,1.19,.73,2.11,.8Zm3.26-10.5c-.75,.35-1.52,.77-2.08,1.4-.49,.55,.04,1.08,.35,1.56,.19,.29,.38,.58,.58,.87,.15,.22,.28,.51,.61,.42,.32-.08,.39-.37,.37-.65-.07-1,.17-1.91,.6-2.81,.18-.36,.07-.68-.43-.79Zm14.76,23.9c-.04-.63-.41-.67-.74-.51-.62,.3-1.21,.67-1.79,1.05-.28,.19-.34,.57-.2,.84,.34,.68,.73,1.35,1.17,1.98,.27,.39,.73,.25,.79-.15,.18-1.13,.04-2.32,.77-3.22Zm19.14-17.58c-.55,.1-.73,.39-.51,.76,.35,.6,.76,1.17,1.18,1.73,.24,.31,.65,.37,.96,.21,.61-.32,1.22-.69,1.74-1.13,.34-.29,.33-.81-.22-.86-1.12-.1-2.26,.02-3.16-.7ZM26.22,13.05c.77,.01,2.07-2.12,1.79-2.67-.14-.26-.38-.3-.59-.17-.95,.56-1.97,.84-3.06,.97-.36,.04-.7,.43-.25,.74,.7,.47,1.49,.81,2.11,1.13Zm-8.48,25.81c-.29-.69-.62-1.35-.85-2.05-.17-.52,.16-1.4-.5-1.52-.73-.12-.77,.82-1.1,1.31-.15,.22-.24,.49-.36,.73-.18,.37-.1,.74,.22,.94,.63,.38,1.29,.71,1.97,1,.31,.13,.63,.02,.63-.41ZM40.55,12.26c-.61,.52-1.55,.7-2.08,1.47-.16,.24-.13,.53,.01,.78,.3,.54,.62,1.07,.95,1.59,.16,.25,.41,.36,.7,.27,.26-.08,.34-.31,.33-.55-.07-.99,.14-1.91,.62-2.78,.19-.36,.05-.68-.52-.78Zm.74,41.26c-.04-.59-2.37-1.65-2.88-1.32-.1,.06-.2,.14-.25,.24-.31,.58-.61,1.17-.89,1.77-.1,.21-.12,.47,.08,.65,.21,.19,.45,.11,.65-.03,.79-.55,1.67-.8,2.63-.81,.29,0,.63-.11,.66-.49Zm-6.29-3.45c-.53,.08-.7,.33-.39,.78,.39,.59,.62,1.23,.83,1.9,.15,.48-.15,1.31,.55,1.37,.68,.06,.68-.82,.99-1.27,.17-.25,.29-.55,.39-.84,.09-.26,.11-.57-.12-.76-.66-.55-1.47-.85-2.25-1.19Zm-8.1,.86c-.33-.71-.65-1.57-1.36-2.13-.42-.33-.74,.04-.71,.52,.05,.96-.13,1.84-.6,2.68-.15,.27-.23,.62,.16,.8,.46,.22,2.49-1.21,2.52-1.87Zm21.21-25.15c-.67,.04-.67,.39-.45,.8,.46,.86,.8,1.74,.81,2.74,0,.44,.26,.76,.77,.43,.48-.31,1.23-2.17,1.01-2.6-.46-.87-1.42-.97-2.13-1.36ZM10.75,37.08c-.58-.03-.74,.31-.4,.88,.49,.82,.81,1.68,.89,2.62,.02,.24,.05,.49,.33,.55,.26,.06,.48-.09,.59-.3,.4-.73,1.19-1.44,.83-2.31-.38-.92-1.52-.98-2.24-1.45Zm41.18-9.25c-1.27,.12-1.2,1.36-1.72,2.09-.14,.19-.19,.45,.04,.63,.2,.17,.46,.15,.65,.02,.82-.57,1.73-.83,2.73-.87,.48-.02,.91-.41,.38-.83-.59-.47-1.27-.89-2.08-1.04Zm1.16,11.99c-.3-.47-.65-1.02-1.01-1.56-.43-.64-.93-.74-1.56-.23-.39,.32-.82,.57-1.24,.86-.2,.14-.37,.3-.33,.56,.05,.29,.29,.35,.53,.34,.99-.07,1.9,.2,2.8,.61,.4,.18,.78,.13,.81-.58Zm-14.3-23.04c-.34-.69-.71-1.41-1.28-2.01-.17-.18-.41-.24-.65-.14-.73,.29-1.41,.68-1.98,1.21-.37,.35-.31,.79,.27,.79,1.04,0,1.99,.23,2.93,.66,.35,.16,.71,.09,.7-.51ZM14.02,27.37c.8-.29,1.55-.82,2.22-1.45,.22-.21,.08-.58-.26-.58-1.13-.02-2.22-.18-3.25-.67-.23-.11-.45,.01-.53,.29-.16,.54,1.15,2.37,1.83,2.42Zm38.35-3.69c-.06-.48-.25-.81-.68-.53-.94,.61-1.94,.94-3.05,1.05-.36,.04-.56,.45-.2,.68,.77,.49,1.59,1.3,2.51,1.02,.94-.29,.98-1.49,1.43-2.22Zm2.82,12.36c0-.31-.01-.63-.3-.62-.83,.03-1.36,.68-1.99,1.1-.43,.29-.37,.77-.16,1.15,.29,.54,.63,1.07,1.01,1.56,.39,.5,.84,.34,.9-.2,.11-1.04,.05-2.1,.53-2.99ZM10.51,29.73c.66-.25,1.26-.67,1.81-1.17,.4-.37,.43-.8,.12-1.26-.28-.42-.55-.85-.84-1.26-.15-.22-.32-.47-.65-.4-.33,.07-.4,.36-.39,.64,.06,.99-.1,1.92-.59,2.81-.23,.43,.02,.65,.54,.64Zm4.13,9.38c-.7,0-.89,.47-1.05,.9-.23,.59-.85,1.08-.59,1.81,.09,.24,.36,.3,.59,.14,.89-.6,1.85-.96,2.93-1.04,.41-.03,.71-.39,.3-.71-.67-.52-1.45-.88-2.18-1.1ZM37.9,12.69c.81-.17,1.59-.62,2.19-1.27,.34-.37-.05-.62-.47-.63-.98-.02-1.9-.27-2.77-.74-.33-.18-.68-.28-.8,.25-.12,.56,1.2,2.35,1.85,2.38Zm-8,3.54c-.03-.07-.04-.21-.11-.27-.69-.51-1.43-1.01-2.27-1.11-.74-.08-.89,.75-1.22,1.25-.17,.25-.25,.57-.37,.85-.09,.22-.2,.43,0,.64,.25,.26,.51,.13,.74-.02,.83-.54,1.73-.85,2.72-.92,.24-.02,.47-.07,.5-.42Zm20.82,20.11c-.33-.69-.74-1.45-1.39-2.01-.38-.32-.68-.04-.67,.4,.04,1-.18,1.92-.62,2.81-.14,.28-.18,.63,.22,.77,.49,.18,2.45-1.34,2.45-1.98Zm-15.34,12.53c.03,.07,.06,.18,.12,.27,.91,1.38,2.69,1.28,3.44-.18,.12-.24,.25-.48,.36-.73,.11-.24,.29-.49,.03-.75-.26-.26-.52-.12-.74,.04-.81,.6-1.73,.84-2.72,.92-.25,.02-.46,.08-.49,.43Zm-4.82,.17c0-.48-.29-.57-.62-.59-.5-.04-1-.06-1.5-.11-.65-.07-1.34-1.06-1.85-.35-.48,.67,.5,1.26,.81,1.89,.21,.43,.58,.84,1.11,.55,.73-.41,1.55-.7,2.05-1.38Zm.09-34.52c-.29-.71-.59-1.42-.87-2.14-.19-.48,.22-1.32-.44-1.42-.76-.11-.73,.85-1.07,1.32-.15,.22-.26,.48-.35,.73-.13,.36-.1,.72,.24,.94,.56,.35,1.13,.68,1.72,.96,.35,.16,.7,.11,.77-.4Zm-5.45,8.85c-.05-.18-.22-.29-.44-.4-1.75-.87-3.1-.25-3.57,1.66-.03,.14-.07,.33,0,.43,.13,.22,.34,.1,.51,.03,1.04-.42,2.07-.83,3.11-1.25,.18-.07,.34-.17,.4-.47Zm1.83,20.16c-.47,.15-1.1,.34-1.71,.56-.17,.06-.42,.16-.34,.39,.05,.15,.25,.29,.41,.35,1.05,.38,2.12,.72,3.09,1.29,.25,.14,.44,.12,.52-.2,.18-.68-1.11-2.39-1.97-2.39Zm14.84-21.02c-.5,.15-1.11,.27-1.68,.51-.54,.23-.46,.59,.03,.8,1.06,.46,2.14,.88,3.21,1.31,.19,.08,.37,.11,.47-.14,.19-.52-1.33-2.46-2.03-2.47Zm-18.56,20.79c.34-.09,.94-.24,1.53-.41,.19-.05,.36-.18,.37-.4,0-.22-.18-.31-.37-.39-1.04-.42-2.07-.86-3.11-1.28-.21-.09-.46-.17-.56,.16-.18,.6,1.21,2.31,2.14,2.32Zm18.54,0c1.44,.03,1.4-1.22,1.91-1.96,.1-.15,.21-.35,.02-.52-.17-.15-.37-.06-.54,.02-.6,.26-1.24,.47-1.8,.81-.53,.32-1.67,.17-1.52,.89,.17,.77,1.31,.54,1.93,.77Zm-3.95,.24c-1.14,.03-1.31,1.03-1.73,1.79-.11,.2-.21,.45,.01,.64,.2,.18,.44,.11,.66,.02,.53-.24,1.07-.46,1.58-.74,.51-.28,1.53-.12,1.42-.87-.09-.64-1.11-.53-1.69-.79-.07-.03-.15-.02-.25-.04ZM3.08,38.32c.66-.14,1.39-.26,2.09-.45,.38-.1,.53-.44,.42-.83-.1-.35-.37-.52-.7-.47-.68,.1-1.36,.24-2.04,.39-.35,.08-.7,.23-.66,.67,.04,.48,.46,.57,.89,.69Zm58.36-5.57c-.57,.2-1.65-.4-1.66,.65,0,.87,1.01,.77,1.69,.76,.65-.01,1.71,.29,1.74-.63,.03-1.07-1.09-.63-1.77-.78Zm-10.57,23.87c-.48-.7-.85-1.62-1.64-2.22-.19-.14-.45-.13-.65,.03-.22,.18-.39,.44-.26,.71,.41,.84,.95,1.59,1.67,2.2,.2,.17,.42,.17,.63,0,.19-.15,.32-.33,.26-.71Zm11.14-28.04c-.5,.07-1.07,.16-1.64,.24-.44,.06-.74,.28-.69,.76,.05,.48,.4,.64,.83,.61,.58-.05,1.15-.13,1.72-.22,.43-.07,.9-.17,.88-.73-.02-.64-.54-.65-1.1-.65Zm-58.92,0c-.42,.01-.93-.1-1.13,.49-.12,.35,.04,.66,.36,.74,.77,.21,1.56,.4,2.37,.34,.35-.03,.68-.22,.68-.66,0-.43-.27-.61-.65-.67-.53-.08-1.06-.16-1.63-.24ZM35.33,2.99c-.06-.5,.09-1.03-.5-1.23-.41-.14-.73,.08-.8,.45-.14,.75-.24,1.51-.27,2.27-.01,.34,.2,.68,.64,.69,.42,0,.62-.25,.68-.64,.09-.53,.17-1.06,.25-1.54Zm2.35,1.72c-.03,.51,.09,.89,.51,1.03,.53,.17,.67-.3,.78-.65,.2-.63,.33-1.28,.47-1.92,.09-.4-.09-.7-.44-.86-.37-.17-.59,.1-.77,.36-.43,.64-.34,1.42-.56,2.04Zm-4.44,56.71c-.19-.58,.36-1.65-.68-1.67-1.16-.02-.67,1.09-.72,1.73-.05,.61-.23,1.59,.64,1.6,1.01,.02,.63-1.01,.76-1.66ZM47.25,9.38c.67-.04,2.06-2.27,1.8-2.82-.26-.53-.71-.51-1.03-.11-.48,.61-.92,1.26-1.27,1.95-.27,.52-.02,.89,.51,.98Zm-32.06,1.76c.03-.6-1.4-2.33-1.92-2.4-.24-.04-.46,0-.61,.23-.17,.24-.2,.48-.04,.75,.42,.7,.96,1.32,1.61,1.81,.51,.39,.85,.12,.97-.38ZM55.57,52.66c-.02-.6-1.82-2.31-2.3-2.24-.6,.09-.84,.54-.49,1,.46,.6,1.04,1.15,1.66,1.58,.42,.29,.97,.24,1.13-.34ZM3.52,32.77c-.58,.13-1.71-.3-1.69,.72,.02,1,1.13,.59,1.81,.68,.04,0,.08,0,.12,0,.6-.13,1.57,.02,1.51-.85-.05-.85-.98-.45-1.54-.55-.04,0-.08,0-.2,0Zm53.82,17.06c.45,.01,.69-.1,.8-.38,.12-.29-.01-.55-.24-.71-.63-.44-1.27-.87-1.92-1.28-.3-.19-.6-.1-.84,.14-.22,.22-.26,.54-.06,.73,.69,.67,1.47,1.21,2.25,1.5ZM7.97,44.66c.01-.6-.39-.77-.84-.61-.65,.24-1.27,.56-1.86,.92-.31,.19-.68,.47-.38,.94,.26,.42,.63,.38,1.02,.21,.53-.24,1.05-.48,1.57-.73,.3-.14,.48-.38,.49-.73ZM31.15,3.44c-.21-.58,.38-1.71-.78-1.67-1.02,.03-.68,1.09-.59,1.68,.09,.62-.16,1.77,.91,1.66,1-.1,.33-1.06,.46-1.67Zm29.61,31.2c-.39,.03-.92-.08-1.07,.54-.1,.42,.17,.69,.53,.76,.71,.14,1.44,.23,2.16,.27,.34,.02,.7-.17,.73-.6,.04-.48-.26-.68-.7-.74-.53-.07-1.06-.15-1.65-.24ZM31.8,3.35c.1,.67-.21,1.7,.73,1.72,.98,.02,.69-1.03,.67-1.65-.01-.61,.39-1.64-.66-1.66-1.1-.03-.56,1.03-.74,1.6Zm18.7,8.35c.84-.4,1.27-1.22,1.83-1.89,.25-.3,.38-.62,.04-.93-.3-.28-.69-.26-.95,.02-.53,.56-1.07,1.14-1.48,1.79-.29,.46-.1,.9,.55,1.01Zm-33.74-1.87c.01-.4-1.35-2.25-1.75-2.4-.25-.09-.45-.04-.64,.13-.22,.21-.31,.45-.16,.73,.4,.76,.91,1.44,1.56,2.01,.19,.16,.4,.24,.63,.09,.2-.13,.35-.3,.36-.56ZM59.54,46.25c.34,0,.53-.17,.67-.42,.13-.25,0-.45-.17-.62-.61-.64-1.46-.84-2.23-1.17-.24-.1-.56-.04-.68,.28-.12,.31-.12,.65,.15,.86,.68,.52,1.46,.86,2.26,1.07ZM4.9,26.23c.61,0,.99,0,1.12-.41,.15-.49-.22-.73-.6-.85-.67-.2-1.35-.37-2.03-.5-.32-.06-.63,.09-.73,.44-.12,.4,.07,.7,.46,.82,.67,.21,1.34,.38,1.79,.5ZM27.36,4.64c-.14-.52-.29-1.16-.49-1.78-.11-.34-.35-.68-.76-.57-.42,.11-.62,.45-.53,.91,.12,.61,.26,1.21,.4,1.81,.1,.44,.35,.7,.82,.63,.49-.07,.57-.45,.56-1ZM59.48,24.37c.5-.17,1.2-.39,1.88-.66,.33-.13,.43-.43,.37-.77-.07-.4-.38-.46-.71-.44-.75,.05-1.42,.36-2.11,.62-.39,.15-.5,.48-.4,.86,.1,.39,.44,.38,.97,.39ZM43.44,4.41c.05-.52-.13-.77-.42-.92-.36-.18-.63,.04-.76,.32-.31,.7-.58,1.43-.82,2.16-.1,.31,.01,.63,.34,.77,.32,.14,.65,.09,.8-.24,.33-.73,.61-1.49,.85-2.09Zm-6.08,57.85c-.09-.84-.13-1.5-.24-2.14-.07-.39-.29-.74-.79-.65-.42,.07-.57,.4-.53,.77,.07,.72,.16,1.45,.28,2.16,.06,.34,.32,.54,.67,.49,.48-.06,.58-.43,.6-.63ZM18.27,8.54c-.11-.74-.74-1.35-1.2-2.04-.17-.26-.46-.44-.8-.26-.37,.2-.45,.57-.27,.89,.39,.7,.84,1.37,1.29,2.04,.14,.2,.4,.24,.63,.17,.32-.1,.34-.37,.35-.8Zm-3.72,44.62c-.5,.04-2.11,1.89-2.05,2.38,.03,.24,.15,.45,.39,.54,.28,.11,.56,.06,.75-.16,.49-.55,.97-1.1,1.42-1.68,.21-.26,.2-.58,0-.86-.12-.17-.29-.24-.5-.22ZM57.8,20.81c.73-.35,1.58-.63,2.26-1.21,.23-.2,.25-.47,.04-.72-.21-.26-.49-.42-.81-.27-.69,.33-1.38,.68-2.05,1.06-.23,.13-.41,.38-.26,.69,.15,.29,.38,.48,.81,.46Zm-49.82-.71c-.04-.1-.06-.29-.16-.37-.71-.55-1.5-.96-2.38-1.17-.29-.07-.54,.1-.65,.38-.11,.3,.02,.58,.25,.72,.71,.4,1.42,.81,2.17,1.11,.45,.18,.71-.15,.77-.67ZM2.83,36.17c.57-.05,1.15-.07,1.72-.15,.44-.06,.87-.22,.81-.78-.06-.55-.51-.62-.96-.59-.57,.05-1.14,.16-1.71,.22-.43,.05-.78,.2-.76,.68,.02,.55,.45,.64,.9,.61Zm8.81,14.36c-.71,.3-1.35,.83-1.9,1.47-.22,.25-.45,.59-.12,.93,.28,.29,.67,.28,.97,.1,.69-.43,1.3-.99,1.72-1.68,.28-.46,.03-.81-.66-.82Zm-3.96-.7c.77-.33,1.59-.79,2.22-1.54,.16-.19,.13-.44-.04-.63-.19-.22-.43-.41-.7-.24-.72,.44-1.42,.91-2.11,1.4-.23,.16-.29,.45-.11,.73,.14,.22,.35,.29,.74,.29Zm39.55,8.97c-.26-.73-.63-1.5-1.14-2.19-.18-.24-.48-.26-.75-.15-.28,.11-.47,.36-.37,.64,.32,.83,.65,1.67,1.26,2.34,.17,.18,.41,.23,.64,.12,.29-.13,.36-.39,.35-.77ZM41.41,3.84c0-.51,.01-.88-.46-.96-.41-.07-.69,.11-.82,.48-.21,.62-.39,1.25-.55,1.89-.09,.37,.01,.71,.42,.83,.38,.12,.72-.01,.86-.39,.23-.66,.39-1.33,.54-1.86ZM5.57,24.37c.52-.01,.86,0,.96-.39,.08-.34-.07-.63-.35-.79-.68-.37-1.41-.63-2.18-.69-.33-.03-.62,.05-.68,.46-.05,.34,.05,.63,.38,.76,.68,.26,1.38,.48,1.88,.66Zm-2.1,6.31h0c-.23,0-.46-.01-.69,0-.49,.02-1.02,.13-.99,.72,.02,.56,.55,.67,1.04,.68,.39,0,.77,.01,1.16,0,.49-.01,1.12,.08,1.15-.63,.03-.69-.58-.71-1.08-.75-.19-.02-.39,0-.58,0Zm25.78,29.98c-.02-.55,.07-1.11-.56-1.19-.7-.08-.76,.5-.83,1.01-.07,.53-.18,1.06-.2,1.6-.01,.35,.13,.73,.54,.78,.4,.05,.66-.24,.75-.59,.14-.56,.22-1.13,.31-1.61Zm12.16,.16c-.14-.44-.32-1.08-.55-1.69-.13-.33-.36-.66-.79-.5-.41,.16-.59,.52-.48,.95,.16,.6,.36,1.19,.57,1.77,.12,.33,.31,.67,.75,.59,.51-.09,.5-.52,.5-1.12Zm19.87-20.55c.6,0,.97-.02,1.09-.45,.12-.43-.18-.67-.52-.78-.7-.22-1.41-.4-2.13-.54-.34-.07-.59,.18-.7,.5-.13,.36,.04,.63,.37,.74,.7,.22,1.41,.4,1.89,.53Zm-15.92,19.42c-.23-.7-.49-1.47-.97-2.14-.18-.25-.47-.27-.74-.19-.32,.09-.41,.37-.35,.65,.19,.8,.47,1.56,.94,2.24,.19,.27,.48,.41,.82,.23,.28-.15,.32-.42,.3-.79ZM35.78,4.11c.05,.54-.12,1.15,.51,1.24,.68,.1,.77-.52,.88-1,.11-.49,.15-.99,.2-1.49,.04-.42-.09-.8-.55-.89-.47-.09-.7,.21-.78,.65-.09,.53-.18,1.06-.26,1.5ZM18.43,59.62c.09-.04,.22-.05,.3-.13,.67-.68,1.03-1.53,1.3-2.41,.08-.25-.12-.53-.4-.63-.28-.11-.57-.04-.73,.2-.45,.67-.86,1.38-1.07,2.17-.11,.42,.07,.76,.6,.8Zm43.01-27.55s0-.01,0-.02c.35,0,.7,.03,1.04,0,.41-.04,.79-.23,.79-.69,0-.46-.39-.65-.8-.67-.54-.03-1.08-.03-1.62,0-.48,.03-.98,.15-.94,.78,.04,.56,.51,.6,.95,.6,.19,0,.39,0,.58,0ZM14.71,57.32c.62,0,2.17-1.86,2.03-2.4-.05-.2-.24-.4-.42-.52-.26-.18-.54-.08-.72,.16-.46,.62-.94,1.24-1.34,1.9-.3,.5-.05,.8,.45,.86Zm37.14-1.19c.52,.03,.87-.48,.57-.95-.44-.68-.91-1.36-1.57-1.85-.5-.37-.89-.21-1,.41-.08,.47,1.53,2.36,2,2.38Zm8.25-29.89c.48-.13,1.15-.3,1.82-.5,.38-.11,.61-.38,.44-.79-.14-.35-.42-.56-.83-.46-.64,.16-1.28,.3-1.91,.49-.34,.1-.67,.3-.61,.73,.07,.51,.49,.52,1.1,.53ZM10.54,15.86c.26-.02,.43-.18,.55-.38,.17-.28,.06-.57-.15-.74-.59-.5-1.18-1.03-1.83-1.42-.56-.34-.89,0-.89,.6,0,.5,1.8,1.98,2.32,1.94Zm43.91-.01c.52,.03,2.29-1.35,2.35-1.83,.07-.57-.19-1.05-.77-.74-.74,.4-1.42,.96-1.99,1.57-.44,.47-.06,.83,.4,1Zm3.71-.29c-.09-.55-.49-.64-.87-.53-.82,.24-1.5,.77-2.11,1.35-.29,.28-.26,.65,.13,.87,.43,.24,.84,.05,1.18-.22,.59-.46,1.42-.66,1.67-1.47Zm-48.12,1.2c-.19-.75-.95-.92-1.47-1.34-.4-.32-.85-.59-1.37-.34-.43,.2-.4,.59-.13,.86,.6,.59,1.29,1.1,2.1,1.37,.41,.13,.76-.03,.87-.55Zm9.68,42.7c-.08,.56-.05,.92,.37,1.06,.35,.12,.63-.08,.78-.37,.31-.62,.6-1.26,.84-1.92,.12-.32,.14-.73-.31-.88-.37-.12-.7,0-.88,.37-.3,.63-.58,1.27-.79,1.74Zm28.97-.84c.32-.05,.52-.38,.38-.79-.27-.81-.72-1.54-1.31-2.16-.28-.3-.71-.38-.95,.13-.28,.61,1.01,2.75,1.87,2.82Zm-25.08,.25c0-.45-.12-.69-.41-.79-.33-.12-.65-.04-.79,.3-.3,.72-.57,1.44-.82,2.18-.1,.29,.05,.54,.34,.66,.32,.13,.68,.09,.83-.21,.34-.74,.6-1.51,.85-2.14ZM12.39,13.85c.01-.57-1.75-2.31-2.27-2.24-.49,.06-.87,.39-.53,.87,.5,.69,1.1,1.33,1.85,1.75,.38,.21,.86,.19,.95-.38Zm31.07,46.72c-.26-.73-.42-1.53-.86-2.24-.16-.26-.41-.35-.71-.26-.36,.1-.54,.39-.45,.71,.22,.74,.5,1.47,.8,2.18,.14,.32,.48,.38,.81,.28,.29-.09,.42-.32,.41-.68ZM50.76,7.98c-.07-.49-.35-.85-.9-.42-.67,.53-1.11,1.28-1.52,2.03-.13,.23-.08,.45,.09,.64,.16,.18,.34,.3,.61,.23,.45-.13,1.74-1.9,1.72-2.47ZM25.59,61.83c0,.08,.02,.48,.5,.6,.46,.11,.73-.16,.83-.59,.15-.63,.32-1.27,.42-1.91,.06-.42-.17-.79-.61-.85-.41-.06-.63,.28-.71,.63-.15,.6-.25,1.2-.43,2.13Zm13.72-.33c.06-.64-.15-1.24-.31-1.83-.1-.38-.35-.73-.85-.57-.4,.12-.53,.45-.46,.83,.11,.61,.26,1.21,.4,1.82,.1,.41,.29,.76,.78,.69,.56-.08,.4-.56,.44-.93Zm14.7-7.6c-.29-.74-1.04-1.21-1.61-1.83-.27-.3-.58-.38-.91-.06-.3,.3-.34,.62-.06,.93,.5,.54,1.02,1.06,1.55,1.57,.21,.2,.47,.27,.75,.1,.22-.14,.28-.36,.27-.71Zm-24.29,7.77c-.02,.7,.01,1.31,.63,1.36,.65,.05,.72-.55,.76-1.08,.03-.46,.12-.92,.15-1.38,.03-.42-.1-.81-.56-.89-.47-.08-.7,.21-.77,.66-.07,.5-.16,.99-.21,1.32Zm-.48-57.39c-.08-.51-.16-1.08-.25-1.65-.07-.44-.3-.74-.77-.67-.46,.07-.6,.46-.56,.88,.05,.57,.12,1.15,.25,1.71,.09,.41,.25,.89,.81,.81,.57-.08,.51-.59,.52-1.08Zm6.07,57.49c-.06-.39-.15-.92-.23-1.46-.06-.39-.26-.66-.69-.63-.49,.03-.64,.42-.64,.82,0,.5,.12,1,.15,1.5,.04,.49,.12,1.04,.69,1.04,.66,0,.7-.59,.72-1.27ZM20.04,7.57c-.38-.65-.62-1.49-1.2-2.13-.19-.21-.46-.29-.74-.19-.32,.12-.36,.42-.29,.68,.23,.86,.61,1.66,1.26,2.3,.17,.17,.4,.26,.63,.13,.25-.15,.35-.4,.33-.79ZM5.03,44.24c.51-.22,1.22-.5,1.91-.84,.31-.15,.4-.5,.25-.81-.14-.3-.44-.45-.77-.36-.75,.2-1.45,.52-2.12,.93-.26,.16-.35,.43-.27,.71,.11,.38,.45,.36,1,.37Zm1.51-3.17c.02-.32-.13-.54-.44-.57-.93-.09-1.76,.26-2.55,.66-.26,.13-.29,.45-.2,.73,.11,.35,.41,.52,.73,.43,.71-.2,1.4-.45,2.09-.71,.22-.08,.36-.29,.38-.55Zm4.14,7.88c-.59-.04-2.37,1.35-2.45,1.88-.08,.55,.27,.75,.7,.63,.93-.27,1.63-.91,2.17-1.69,.28-.41,0-.73-.42-.82Zm49.54-12.35c-.33,.02-.72,.07-.79,.57-.06,.41,.18,.65,.57,.74,.64,.14,1.27,.3,1.92,.38,.39,.05,.81-.12,.88-.56,.06-.38-.2-.65-.59-.73-.64-.13-1.28-.25-2-.39Zm-3.4,14.4c0-.65-1.92-2.2-2.48-2.04-.54,.16-.66,.54-.33,.97,.5,.64,1.17,1.12,1.89,1.49,.38,.2,.86,.15,.92-.42ZM23.63,3.83c.15,.51,.31,1.18,.53,1.84,.12,.38,.44,.53,.83,.43,.41-.1,.56-.43,.47-.8-.17-.67-.36-1.33-.61-1.97-.13-.34-.47-.53-.85-.42-.38,.11-.35,.45-.36,.92Zm31.94,8.35c-.15-.48-.46-.77-1.01-.45-.71,.41-1.29,1-1.76,1.65-.37,.52-.08,.88,.54,.92,.43,.02,2.21-1.66,2.23-2.12Zm4.41,32.06c.48,0,.83,.07,.99-.29,.16-.38,0-.7-.36-.86-.63-.3-1.27-.57-1.92-.82-.37-.14-.7,0-.86,.37-.14,.32-.02,.65,.28,.8,.66,.32,1.34,.58,1.86,.81ZM22.12,3.56c-.24,.03-.58,.18-.52,.53,.14,.87,.37,1.74,.94,2.46,.18,.23,.45,.32,.73,.18,.33-.17,.41-.48,.31-.79-.21-.66-.46-1.31-.72-1.96-.11-.27-.34-.41-.74-.41ZM58.82,22.5c.52-.22,1.24-.5,1.92-.85,.3-.15,.38-.51,.22-.81-.15-.3-.45-.46-.78-.33-.68,.26-1.36,.55-2.02,.86-.31,.14-.45,.44-.34,.78,.12,.38,.47,.34,1,.35Zm.34-5.18c-.02-.41-.27-.74-.73-.59-.81,.27-1.57,.68-2.14,1.33-.24,.28-.28,.66,.15,.87,.6,.3,2.7-.91,2.73-1.62ZM3.77,40.27c.49-.14,1.17-.31,1.83-.51,.28-.08,.47-.29,.45-.6-.03-.38-.31-.51-.65-.54-.75-.06-1.46,.17-2.15,.4-.34,.11-.67,.31-.59,.74,.1,.51,.52,.49,1.11,.51Zm2.52-17.73c.4-.07,.75,.04,.91-.33,.16-.39-.02-.7-.37-.86-.63-.3-1.27-.57-1.92-.82-.37-.14-.7,0-.85,.37-.13,.33-.01,.65,.29,.8,.66,.32,1.34,.58,1.94,.84Zm50.4,23.16c-.28,.06-.46,.18-.52,.44-.08,.33,0,.66,.28,.83,.63,.38,1.28,.72,1.93,1.07,.27,.14,.53,.11,.7-.17,.15-.26,.15-.56-.03-.77-.63-.73-1.55-.98-2.36-1.39Zm-33.05,15.29c0,.52,.06,.87,.5,.95,.37,.07,.6-.17,.7-.48,.23-.66,.43-1.33,.61-2,.11-.4-.12-.7-.47-.83-.42-.16-.68,.16-.79,.49-.23,.66-.4,1.33-.55,1.87ZM53.34,10.12c-.74,.4-1.24,1.11-1.84,1.7-.24,.24-.35,.54-.11,.83,.26,.32,.66,.37,.93,.12,.58-.51,1.16-1.04,1.6-1.66,.3-.43,.11-.9-.58-.99ZM20.36,4.28c-.42,.03-.71,.22-.67,.56,.13,.92,.45,1.78,1.08,2.49,.16,.18,.41,.22,.64,.11,.28-.13,.4-.4,.33-.67-.22-.77-.47-1.54-.96-2.2-.11-.14-.3-.22-.42-.29Zm23.54,3.22c.09-.03,.2-.06,.3-.11,.35-.19,1.26-2.2,1.14-2.58-.18-.6-.66-.76-1.04-.32-.55,.64-.81,1.48-1,2.31-.09,.38,.13,.67,.6,.71Zm15.41,32.98c-.38,.01-.71,0-.8,.4-.08,.35,.09,.63,.4,.75,.65,.25,1.3,.49,1.97,.68,.37,.11,.7-.03,.82-.44,.1-.35-.06-.6-.36-.77-.65-.36-1.38-.49-2.03-.63Zm1.17-12.37c.6,.1,1.14-.17,1.71-.28,.35-.07,.69-.32,.61-.72-.08-.42-.42-.64-.87-.57-.53,.08-1.07,.16-1.59,.29-.44,.11-.99,.21-.89,.85,.1,.62,.64,.39,1.03,.43ZM11.58,10.14c-.44,.05-.58,.33-.56,.73,.02,.43,1.52,1.96,1.96,2.02,.39,.05,.7-.07,.78-.5,.07-.43-1.71-2.26-2.18-2.25Zm34.02-1.75c.71-.06,1.91-2.37,1.52-2.89-.35-.48-.79-.33-1.04,.07-.4,.61-.74,1.26-1.03,1.93-.22,.51,.12,.77,.55,.88ZM8.89,18.4c-.04-.53-2.1-1.88-2.6-1.67-.51,.21-.6,.7-.25,1.04,.61,.59,1.33,1.07,2.2,1.21,.4,.06,.68-.11,.65-.58Zm8.95,37.08c-.36-.02-.59,.13-.74,.36-.36,.55-.7,1.1-1.02,1.67-.17,.31-.28,.69,.13,.91,.33,.18,.73,.14,.94-.18,.4-.61,.78-1.24,1.08-1.9,.16-.35,.11-.78-.38-.86Zm-6.08-.79c.67-.38,1.2-1.04,1.74-1.68,.22-.25,.43-.61,.06-.91-.31-.25-.67-.22-.95,.04-.51,.47-1,.96-1.45,1.48-.22,.25-.19,.58,0,.86,.11,.17,.29,.25,.6,.21Zm-5.08-6.71c.7-.21,1.43-.63,2.07-1.2,.25-.22,.23-.57,.04-.85-.18-.27-.46-.23-.73-.13-.69,.26-1.31,.64-1.9,1.09-.26,.2-.36,.5-.22,.83,.11,.25,.36,.26,.73,.26Zm-2.08-19.84c.38-.1,.94,.14,1-.51,.05-.57-.4-.67-.84-.75-.57-.11-1.13-.26-1.69-.36-.4-.07-.7,.15-.81,.5-.14,.43,.19,.67,.53,.76,.59,.16,1.21,.24,1.81,.36Zm27.93-15.33c.33-.07,.59-.26,.59-.61,0-.34-.25-.59-.59-.59-.34,0-.59,.25-.59,.59,0,.35,.25,.54,.59,.61Zm17.97,9.21c-.02-.37-.27-.56-.58-.59-.38-.04-.54,.24-.54,.59,0,.35,.16,.62,.53,.6,.32-.02,.57-.21,.59-.59Zm-7.46-7.85c-.34,.07-.6,.26-.59,.61,0,.34,.25,.59,.59,.59,.35,0,.59-.24,.59-.59,0-.35-.25-.54-.59-.61Zm8.21,13.22c.38-.03,.62-.21,.62-.57,0-.36-.24-.57-.6-.53-.34,.03-.58,.27-.61,.59-.03,.39,.28,.49,.6,.51Zm-22.8,24.07c-.08-.38-.3-.62-.69-.64-.3,0-.51,.18-.54,.49-.03,.37,.2,.57,.55,.6,.33,.03,.61-.07,.68-.46Zm-15.43-18.45c-.06-.34-.26-.59-.6-.6-.34,0-.59,.24-.6,.59,0,.35,.24,.59,.59,.6,.36,.01,.53-.26,.61-.59ZM37.39,13.15c-.3,.03-.57,.18-.59,.54-.02,.36,.21,.58,.57,.57,.35-.01,.59-.25,.64-.56,.06-.39-.24-.52-.62-.54Zm-14.3,1.9c-.04-.35-.24-.59-.58-.62-.36-.04-.59,.21-.63,.55-.03,.35,.21,.59,.55,.62,.35,.03,.54-.23,.65-.55Zm16.62,41.27c0-.37-.2-.57-.56-.6-.31-.02-.52,.13-.53,.46,0,.36,.17,.6,.53,.61,.3,.01,.49-.18,.55-.48Zm11.5-14.62c-.02-.34-.22-.5-.53-.47-.35,.03-.58,.23-.56,.6,.02,.31,.24,.5,.55,.49,.37-.01,.53-.26,.54-.62Zm.35-5.39c-.28,.07-.55,.21-.51,.6,.03,.31,.24,.5,.54,.49,.37-.01,.54-.26,.54-.62,0-.34-.2-.48-.57-.48Zm-35.23,6.2c-.04-.3-.19-.52-.5-.54-.38-.03-.57,.2-.6,.55-.03,.31,.13,.53,.47,.53,.36,0,.58-.18,.63-.54ZM56.33,25.09c-.35,.01-.6,.18-.62,.54-.01,.3,.18,.51,.49,.53,.38,.03,.57-.21,.6-.55,.03-.31-.14-.5-.47-.52Zm-22.93,27.46c-.04-.3-.19-.52-.5-.54-.38-.03-.57,.21-.6,.56-.02,.32,.13,.52,.47,.52,.36,0,.58-.18,.63-.54Zm-18.91-14.43c-.03-.26-.21-.44-.53-.41-.35,.03-.59,.21-.56,.6,.02,.31,.24,.5,.54,.49,.37-.01,.54-.26,.55-.68Zm-6.09,.35c0-.31-.13-.51-.46-.51-.35,0-.59,.18-.6,.54-.01,.3,.17,.51,.48,.53,.37,.02,.53-.23,.59-.56Zm44.82-6.66c-.09-.32-.26-.58-.61-.57-.34,.01-.56,.26-.57,.6-.01,.33,.25,.45,.54,.47,.34,.02,.6-.11,.64-.49ZM15.08,22.13c-.34,0-.5,.18-.54,.48-.04,.33,.04,.64,.41,.7,.35,.05,.59-.21,.64-.52,.06-.35-.22-.53-.51-.65Zm-.88,27.3c-.37,.01-.56,.22-.59,.57-.03,.31,.12,.52,.46,.51,.35,0,.6-.19,.61-.54,.02-.3-.18-.49-.48-.54Zm24.62,1.73c-.06-.34-.22-.59-.61-.56-.31,.03-.5,.24-.49,.55,.01,.37,.26,.55,.62,.54,.34,0,.47-.21,.48-.53ZM50.45,15.04c.06-.34-.15-.5-.42-.59-.32-.11-.54,.04-.63,.34-.08,.28-.04,.56,.31,.65,.34,.08,.61-.04,.74-.39Zm-35.28-.6c-.03-.31-.19-.53-.5-.54-.38-.02-.58,.21-.56,.58,.02,.31,.23,.5,.54,.49,.32,0,.48-.22,.52-.52Zm12.36-.62c-.08-.25-.25-.43-.56-.43-.39,0-.55,.21-.51,.58,.03,.3,.2,.51,.51,.51,.37,0,.49-.29,.55-.66Zm-4.58,35.34c-.34,.03-.49,.23-.46,.54,.03,.34,.21,.58,.59,.55,.32-.03,.46-.3,.47-.56,.02-.38-.26-.5-.59-.52Zm20.98,1.11c.3-.05,.48-.24,.47-.54-.01-.35-.23-.57-.59-.53-.36,.04-.53,.29-.47,.64,.05,.3,.27,.44,.59,.43ZM8.34,25.09c-.3,.04-.54,.18-.5,.5,.05,.31,.26,.58,.62,.54,.32-.03,.42-.3,.41-.59-.01-.33-.22-.46-.54-.45ZM38.64,8.02c-.32,.01-.5,.18-.48,.5,.01,.29,.13,.55,.46,.53,.33-.02,.57-.24,.58-.59,0-.33-.27-.42-.55-.45Zm-12.63,1.06c.26-.07,.52-.23,.55-.57,.03-.32-.22-.47-.51-.48-.31-.02-.51,.12-.52,.46-.01,.3,.11,.51,.49,.6ZM13.68,28.79c.24-.04,.51-.14,.49-.47-.02-.34-.24-.58-.59-.58-.33,0-.45,.26-.45,.56,0,.33,.19,.48,.55,.49Zm12.28,27.56c-.02-.29-.11-.55-.44-.55-.35,0-.57,.23-.6,.56-.02,.33,.23,.46,.52,.46,.31,0,.5-.15,.52-.47Zm24.37-6.26c.07,.21,.24,.43,.55,.38,.34-.05,.36-.35,.33-.63-.03-.26-.16-.45-.44-.4-.31,.05-.45,.26-.44,.65Zm6.27-11.92c-.26,.01-.43,.14-.43,.41-.01,.33,.18,.48,.5,.46,.27-.02,.39-.2,.38-.46-.01-.27-.17-.4-.44-.41Z" class="cls-2"/><path d="M5.86,51.01c.92,.54,1.3,1.56,1.97,2.32,1.42,1.61,2.95,3.05,4.59,4.42,1.42,1.19,2.99,2.11,4.54,3.08,.93,.58,1.97,1.02,3.01,1.38,.83,.29,1.64,.64,2.46,.94,2.48,.91,5.04,1.35,7.61,1.56,1.83,.15,3.71,.11,5.59-.08,1.88-.2,3.69-.63,5.52-.99,1.04-.21,2.04-.66,3.04-1.04,.96-.37,1.88-.87,2.82-1.24,1.06-.41,1.99-1.04,2.9-1.61,1.76-1.11,3.46-2.39,4.94-3.86,1.34-1.32,2.82-2.58,3.68-4.34,.12-.24,.28-.47,.6-.48,.22,.42-.06,.75-.19,1.1-4.4,11.65-16.18,19.2-28.61,18.04-11.74-1.1-19.79-7.35-24.3-18.19-.13-.32-.48-.63-.15-1.03l-.02,.03Z" class="cls-1"/><path d="M32.54,47.23c-.46,0-.53-.35-.7-.6-.61-.95-1.19-1.91-2.06-2.67-.21-.19-.63-.43-.35-.73,.28-.31,.84-.26,1.05,.07,.6,.94,1.06,.77,1.71,.04,.42-.48,.79,.03,1.03,.35,.35,.47,.6,.52,.94,0,.14-.22,.38-.4,.61-.51,.28-.13,.66-.2,.86,.08,.21,.29-.14,.48-.32,.66-.85,.81-1.58,1.71-2.15,2.75-.15,.27-.35,.52-.62,.59Z" class="cls-3"/><path d="M41.8,55.91c-.32-.01-.68-.02-.73-.42-.06-.42,.3-.63,.62-.76,1.67-.67,3.21-1.58,4.69-2.6,.35-.24,.69-.51,1.05-.73,.34-.21,.59-.01,.79,.26,.21,.29,.09,.54-.14,.71-1.88,1.39-3.9,2.55-6.04,3.5-.07,.03-.15,.02-.23,.03Z" class="cls-3"/><path d="M32.71,57.55c-1.17,.07-2.33-.08-3.49-.21-.44-.05-.81-.19-.8-.66,.02-.54,.51-.56,.88-.5,2.05,.32,4.1,.28,6.15,.01,.41-.06,.95-.05,.98,.55,.03,.51-.45,.53-.83,.64-.96,.29-1.93,.13-2.9,.18Z" class="cls-3"/><path d="M17.19,13.36c-.27-.01-.45-.07-.51-.29-.11-.35,.04-.63,.29-.82,.72-.52,1.44-1.06,2.21-1.5,1.18-.66,2.41-1.24,3.62-1.85,.33-.17,.69-.27,.92,.12,.28,.47-.06,.73-.42,.9-2,.95-3.94,1.99-5.74,3.29-.12,.09-.28,.11-.37,.15Z" class="cls-3"/><path d="M56.14,22.82c-.02,.35,.03,.68-.3,.76-.47,.1-.72-.26-.86-.62-.49-1.23-1.05-2.41-1.78-3.51-.41-.61-.87-1.18-1.28-1.79-.25-.37-.43-.82,.03-1.12,.41-.27,.7,.06,.95,.39,1.23,1.65,2.25,3.43,3.09,5.31,.09,.21,.13,.44,.17,.59Z" class="cls-3"/><path d="M9.43,23.4c-.55,0-.63-.44-.49-.81,.83-2.16,1.97-4.14,3.43-5.94,.24-.3,.62-.35,.94-.09,.34,.26,.17,.59-.01,.83-1.31,1.75-2.53,3.55-3.3,5.62-.09,.23-.28,.37-.57,.4Z" class="cls-3"/><path d="M56.83,34.66c.38-1.59,.01-3.4-.07-5.21-.02-.38-.09-.72,.37-.83,.51-.13,.74,.22,.8,.62,.13,.92,.27,1.85,.27,2.78,0,1.2-.12,2.4-.26,3.6-.05,.38-.09,1.01-.62,.98-.68-.04-.43-.69-.48-1.11-.02-.19,0-.39,0-.82Z" class="cls-3"/><path d="M8.43,41.78c.01-.33-.05-.64,.29-.75,.31-.1,.55,.1,.68,.33,.34,.61,.63,1.24,.95,1.86,.66,1.28,1.38,2.51,2.21,3.69,.24,.33,.56,.78,.05,1.11-.44,.29-.74-.17-.94-.45-1.2-1.67-2.32-3.39-3.13-5.29-.07-.17-.09-.38-.11-.51Z" class="cls-3"/><path d="M56.38,42.16c-.4,1.28-1.16,2.5-1.91,3.72-.44,.72-.96,1.41-1.48,2.08-.2,.27-.51,.61-.87,.34-.37-.28-.24-.71-.01-1.05,.36-.55,.76-1.08,1.14-1.61,.84-1.18,1.48-2.45,2.02-3.79,.13-.33,.38-.65,.78-.57,.41,.08,.32,.47,.33,.88Z" class="cls-3"/><path d="M42.2,8.99c.35,.17,.8,.39,1.25,.62,1.59,.82,3.19,1.62,4.57,2.78,.31,.26,.58,.63,.27,1.01-.33,.4-.69,.14-1.01-.12-1.59-1.26-3.3-2.32-5.22-3.02-.37-.13-.71-.39-.6-.88,.07-.3,.31-.43,.75-.39Z" class="cls-3"/><path d="M16.74,51.58c.18,.1,.44,.19,.65,.35,1.61,1.22,3.29,2.33,5.21,3.03,.37,.14,.89,.37,.63,.91-.21,.43-.67,.31-1.03,.14-1.94-.9-3.82-1.9-5.57-3.14-.31-.22-.51-.47-.43-.87,.05-.26,.2-.41,.55-.43Z" class="cls-3"/><path d="M8.24,29.58c-.26,1.8-.38,3.61-.05,5.43,.07,.4,.22,1.09-.45,1.12-.56,.02-.65-.61-.68-1.06-.12-1.81-.31-3.63-.02-5.44,.09-.57-.09-1.48,.76-1.43,.77,.05,.25,.9,.44,1.38Z" class="cls-3"/><path d="M32.58,7.39c1.12,0,2.25-.27,3.35,.08,.32,.1,.76,.17,.65,.65-.08,.36-.46,.38-.77,.36-.89-.06-1.77-.22-2.65-.21-1.23,0-2.47,.14-3.7,.2-.33,.02-.77,.1-.86-.37-.1-.55,.4-.67,.74-.69,1.08-.05,2.16-.02,3.24-.02Z" class="cls-3"/><path d="M18.26,45.87c-.73,.05-1.46,.08-2.19,.15-.41,.04-.82,.03-.98-.39-.17-.44,.24-.6,.54-.76,.74-.39,1.29-.97,1.66-1.72,.14-.29,.32-.57,.69-.49,.44,.09,.47,.45,.49,.81,.03,.81,.06,1.62-.21,2.41h0Z" class="cls-3"/><path d="M55.1,27.48c-.02,.49-.3,.69-.69,.53-.68-.28-1.36-.59-1.95-1.01-.55-.39-.35-1-.05-1.47,.36-.56,.35-1.6,1.16-1.55,.85,.05,.36,1.02,.55,1.55,.25,.7,.67,1.3,.98,1.95Z" class="cls-3"/><path d="M41.88,51.82c.17,.32,.02,.57-.38,.48-.26-.06-.5-.21-.74-.33-1.91-.94-2.07-1.76-.68-3.42,.31-.37,.75-.5,.92-.03,.37,1.07,.59,2.2,.88,3.3Z" class="cls-3"/><path d="M47.49,44.94c-.08-.8-.16-1.61-.22-2.41-.02-.31,.02-.65,.4-.74,.32-.08,.5,.18,.64,.4,.48,.79,1.16,1.33,1.99,1.71,.25,.11,.47,.29,.43,.61-.04,.35-.31,.4-.59,.42-.8,.08-1.61,.16-2.41,.23,0,0,0,0,0,0-.08-.08-.16-.16-.24-.24h0Z" class="cls-3"/><path d="M27.39,52.4c.68,.03,2.01,1.95,1.8,2.49-.14,.35-.42,.35-.66,.2-.83-.51-1.72-.64-2.67-.6-.32,.01-.64-.05-.75-.41-.12-.37,.14-.57,.41-.74,.62-.39,1.19-.87,1.88-.94Z" class="cls-3"/><path d="M17.79,20.15c.07,.77,.15,1.53,.21,2.3,.02,.31,.04,.65-.29,.82-.37,.19-.59-.11-.74-.37-.45-.77-1.16-1.22-1.9-1.65-.27-.15-.59-.28-.52-.67,.08-.49,.49-.39,.82-.43,.73-.07,1.45-.15,2.18-.23,0,0,0,0,0,0,.08,.08,.16,.16,.24,.24h0Z" class="cls-3"/><path d="M45.84,19.45c.26,.75,.24,1.53,.23,2.31,0,.28,0,.57-.32,.68-.35,.12-.64-.04-.77-.35-.36-.84-1.06-1.31-1.8-1.76-.26-.16-.58-.33-.49-.71,.09-.38,.45-.4,.76-.39,.81,.04,1.64-.18,2.41,.23,0,0,0,0,0,0Z" class="cls-3"/><path d="M26.11,14.61c-.28,.69-.55,1.48-1.1,2.08-.36,.38-.82,.12-.84-.33-.03-1.05-.38-1.96-.91-2.84-.15-.25-.1-.54,.2-.7,.51-.28,2.64,1.11,2.66,1.8Z" class="cls-3"/><path d="M34.24,15.15c-.51-.08-.63-.4-.45-.77,.47-.93,.66-1.9,.63-2.93,0-.24,.1-.47,.36-.54,.27-.08,.45,.1,.58,.29,.35,.51,.72,1.02,1.01,1.57,.24,.45,.2,.93-.27,1.24-.62,.4-1.25,.77-1.86,1.14Z" class="cls-3"/><path d="M13.12,29.26c.65,.02,2.1,1.82,2.01,2.34-.05,.34-.3,.5-.59,.35-1-.53-2.07-.6-3.17-.62-.42,0-.71-.37-.36-.71,.63-.62,1.36-1.15,2.1-1.36Z" class="cls-3"/><path d="M13.52,37.26c-.92-.06-1.49-.49-2.11-.8-.25-.13-.43-.34-.34-.66,.09-.31,.35-.43,.62-.42,.93,.03,1.74-.29,2.5-.79,.24-.15,.51-.23,.76-.04,.33,.26,.18,.58,0,.83-.47,.68-.45,1.8-1.44,1.87Z" class="cls-3"/><path d="M16.78,26.76c.5,.11,.61,.43,.43,.79-.43,.89-.67,1.81-.6,2.81,.02,.28-.05,.57-.37,.65-.34,.09-.47-.2-.61-.42-.19-.29-.39-.58-.58-.87-.31-.48-.84-1.01-.35-1.56,.56-.63,1.33-1.04,2.08-1.4Z" class="cls-3"/><path d="M31.54,50.66c-.74,.9-.6,2.09-.77,3.22-.06,.4-.51,.54-.79,.15-.44-.62-.82-1.3-1.17-1.98-.14-.27-.08-.66,.2-.84,.57-.39,1.17-.75,1.79-1.05,.33-.16,.7-.12,.74,.51Z" class="cls-3"/><path d="M50.69,33.08c.89,.72,2.04,.6,3.16,.7,.54,.05,.56,.57,.22,.86-.52,.45-1.13,.81-1.74,1.13-.31,.16-.72,.1-.96-.21-.42-.55-.83-1.12-1.18-1.73-.22-.38-.04-.67,.51-.76Z" class="cls-3"/><path d="M26.22,13.05c-.62-.33-1.41-.66-2.11-1.13-.45-.3-.11-.7,.25-.74,1.09-.13,2.11-.41,3.06-.97,.21-.12,.45-.09,.59,.17,.28,.55-1.02,2.68-1.79,2.67Z" class="cls-3"/><path d="M46.55,44.93c-.83,.38-1.71,.5-2.61,.46-.24,0-.48-.03-.59-.29-.12-.31,.02-.54,.27-.69,.84-.49,1.42-1.19,1.79-2.08,.11-.26,.31-.47,.64-.37,.31,.09,.42,.38,.43,.64,.05,.78,.04,1.55,.06,2.33h0Z" class="cls-3"/><path d="M19.43,45.87c-.17-.84-.29-1.68-.23-2.55,.02-.28,.01-.57,.33-.68,.31-.1,.53,.07,.68,.32,.49,.82,1.15,1.46,1.99,1.93,.25,.14,.5,.3,.38,.63-.11,.29-.41,.33-.69,.33-.82,0-1.64,0-2.45,0,0,0,0,0,0,0Z" class="cls-3"/><path d="M18.73,18.99c-.45-.87-.12-1.84-.37-2.74-.06-.2,.09-.38,.28-.46,.24-.1,.49-.03,.62,.18,.53,.86,1.3,1.42,2.14,1.91,.25,.15,.41,.37,.29,.68-.11,.3-.37,.39-.65,.4-.77,.02-1.55,.02-2.33,.03,0,0,0,0,0,0Z" class="cls-3"/><path d="M17.74,38.86c0,.43-.32,.54-.63,.41-.68-.29-1.34-.61-1.97-1-.31-.19-.4-.56-.22-.94,.12-.24,.21-.51,.36-.73,.32-.49,.37-1.44,1.1-1.31,.67,.11,.33,1,.5,1.52,.23,.7,.56,1.36,.85,2.05Z" class="cls-3"/><path d="M40.55,12.26c.57,.1,.71,.42,.52,.78-.48,.88-.69,1.79-.62,2.78,.02,.24-.06,.47-.33,.55-.29,.09-.55-.02-.7-.27-.33-.52-.65-1.05-.95-1.59-.14-.24-.17-.54-.01-.78,.53-.77,1.47-.95,2.08-1.47Z" class="cls-3"/><path d="M18.25,46.8c.3,.82,.24,1.68,.24,2.54,0,.27,0,.57-.32,.68-.3,.1-.53-.05-.67-.32-.44-.88-1.19-1.42-1.99-1.92-.24-.15-.5-.3-.38-.63,.11-.3,.4-.34,.68-.34,.82,0,1.63,0,2.45,0h0Z" class="cls-3"/><path d="M47.71,46.11c.82-.3,1.68-.25,2.53-.25,.27,0,.58-.01,.66,.33,.06,.26-.12,.44-.32,.57-.81,.51-1.38,1.24-1.86,2.05-.14,.23-.25,.52-.59,.46-.33-.06-.42-.35-.4-.63,.06-.85-.3-1.69-.01-2.53,0,0,0,0,0,0Z" class="cls-3"/><path d="M17.56,18.98c-.82,.3-1.68,.25-2.53,.25-.27,0-.58,.02-.67-.32-.07-.26,.1-.44,.31-.57,.8-.52,1.4-1.21,1.82-2.07,.12-.24,.3-.49,.62-.44,.39,.06,.44,.4,.44,.72,.01,.81,0,1.63,0,2.44,0,0,0,0,0,0Z" class="cls-3"/><path d="M41.29,53.51c-.03,.38-.37,.48-.66,.49-.96,.02-1.84,.26-2.63,.81-.19,.13-.44,.21-.65,.03-.2-.18-.18-.44-.08-.65,.28-.6,.59-1.18,.89-1.77,.05-.1,.15-.18,.25-.24,.5-.32,2.84,.73,2.88,1.32Z" class="cls-3"/><path d="M34.99,50.06c.79,.34,1.59,.63,2.25,1.19,.23,.19,.21,.5,.12,.76-.1,.29-.22,.59-.39,.84-.31,.46-.31,1.33-.99,1.27-.7-.06-.4-.9-.55-1.37-.21-.67-.44-1.31-.83-1.9-.3-.46-.13-.7,.39-.78Z" class="cls-3"/><path d="M26.89,50.93c-.03,.66-2.05,2.09-2.52,1.87-.38-.18-.31-.53-.16-.8,.48-.84,.65-1.73,.6-2.68-.02-.48,.29-.85,.71-.52,.71,.55,1.03,1.42,1.36,2.13Z" class="cls-3"/><path d="M48.1,25.78c.71,.39,1.67,.5,2.13,1.36,.23,.43-.53,2.29-1.01,2.6-.51,.33-.76,.01-.77-.43-.01-1-.35-1.88-.81-2.74-.22-.41-.21-.75,.45-.8Z" class="cls-3"/><path d="M10.75,37.08c.72,.47,1.86,.53,2.24,1.45,.36,.87-.44,1.58-.83,2.31-.11,.21-.33,.35-.59,.3-.28-.06-.31-.31-.33-.55-.08-.95-.4-1.8-.89-2.62-.34-.57-.18-.91,.4-.88Z" class="cls-3"/><path d="M51.93,27.83c.81,.14,1.49,.57,2.08,1.04,.52,.42,.1,.81-.38,.83-1,.05-1.9,.31-2.73,.87-.2,.14-.45,.15-.65-.02-.22-.19-.17-.44-.04-.63,.53-.73,.45-1.98,1.72-2.09Z" class="cls-3"/><path d="M46.54,46.1c.3,.83,.26,1.68,.25,2.54,0,.27,.03,.58-.32,.67-.26,.07-.45-.1-.57-.31-.52-.82-1.24-1.38-2.12-1.76-.22-.1-.43-.22-.39-.51,.04-.27,.27-.34,.5-.43,.87-.32,1.77-.17,2.66-.21,0,0,0,0,0,0Z" class="cls-3"/><path d="M53.09,39.82c-.03,.7-.41,.76-.81,.58-.89-.41-1.8-.67-2.8-.61-.24,.02-.48-.05-.53-.34-.05-.27,.13-.43,.33-.56,.41-.29,.85-.54,1.24-.86,.62-.51,1.13-.4,1.56,.23,.36,.54,.71,1.09,1.01,1.56Z" class="cls-3"/><path d="M38.79,16.78c0,.59-.35,.67-.7,.51-.94-.43-1.89-.67-2.93-.66-.58,0-.64-.43-.27-.79,.57-.54,1.25-.93,1.98-1.21,.24-.09,.48-.03,.65,.14,.57,.6,.94,1.32,1.28,2.01Z" class="cls-3"/><path d="M14.02,27.37c-.68-.04-1.99-1.88-1.83-2.42,.08-.28,.3-.39,.53-.29,1.03,.49,2.12,.64,3.25,.67,.34,0,.49,.37,.26,.58-.67,.63-1.42,1.16-2.22,1.45Z" class="cls-3"/><path d="M52.37,23.67c-.45,.74-.5,1.94-1.43,2.22-.92,.28-1.73-.53-2.51-1.02-.36-.22-.16-.64,.2-.68,1.11-.12,2.11-.45,3.05-1.05,.43-.28,.62,.05,.68,.53Z" class="cls-3"/><path d="M55.2,36.03c-.49,.9-.42,1.96-.53,2.99-.06,.54-.51,.71-.9,.2-.38-.49-.72-1.01-1.01-1.56-.21-.39-.27-.86,.16-1.15,.63-.43,1.16-1.07,1.99-1.1,.28-.01,.3,.3,.3,.62Z" class="cls-3"/><path d="M10.51,29.73c-.51,0-.77-.21-.54-.64,.49-.89,.64-1.82,.59-2.81-.02-.28,.05-.56,.39-.64,.33-.07,.5,.18,.65,.4,.29,.41,.55,.85,.84,1.26,.31,.46,.28,.89-.12,1.26-.55,.5-1.15,.92-1.81,1.17Z" class="cls-3"/><path d="M14.64,39.11c.73,.22,1.52,.58,2.18,1.1,.41,.32,.11,.68-.3,.71-1.08,.08-2.04,.43-2.93,1.04-.23,.16-.51,.1-.59-.14-.26-.73,.36-1.22,.59-1.81,.16-.42,.35-.89,1.05-.9Z" class="cls-3"/><path d="M18.72,20.16c.79-.35,1.61-.5,2.47-.47,.28,.01,.57,.04,.69,.33,.12,.31-.09,.53-.33,.66-.8,.47-1.29,1.19-1.73,1.97-.15,.27-.29,.59-.69,.45-.35-.12-.39-.45-.4-.76-.01-.73,0-1.46-.01-2.2h0Z" class="cls-3"/><path d="M47.01,19.22c.77,0,1.55-.02,2.32-.02,.27,0,.57-.02,.66,.32,.07,.25-.09,.46-.28,.59-.8,.51-1.45,1.15-1.86,2.02-.1,.22-.31,.35-.57,.3-.32-.06-.45-.3-.47-.59-.05-.89-.11-1.78,.2-2.64,0,0,0,0,0,0Z" class="cls-3"/><path d="M37.9,12.69c-.64-.03-1.97-1.82-1.85-2.38,.12-.53,.47-.43,.8-.25,.87,.47,1.78,.72,2.77,.74,.41,0,.8,.26,.47,.63-.6,.65-1.38,1.1-2.19,1.27Z" class="cls-3"/><path d="M46.78,18.05c0-.77-.01-1.55,0-2.32,0-.27-.02-.57,.33-.65,.26-.06,.46,.09,.59,.29,.54,.82,1.19,1.52,2.07,1.98,.23,.12,.31,.35,.23,.6-.08,.26-.31,.33-.55,.33-.81,0-1.63,0-2.44,0h0c-.08-.07-.16-.15-.24-.23h0Z" class="cls-3"/><path d="M29.89,16.23c-.04,.35-.26,.4-.5,.42-.99,.07-1.89,.39-2.72,.92-.23,.15-.49,.28-.74,.02-.2-.21-.1-.43,0-.64,.12-.28,.2-.6,.37-.85,.33-.49,.48-1.33,1.22-1.25,.84,.1,1.58,.6,2.27,1.11,.08,.06,.09,.2,.11,.27Z" class="cls-3"/><path d="M50.72,36.34c0,.64-1.96,2.15-2.45,1.98-.4-.14-.36-.49-.22-.77,.44-.89,.66-1.81,.62-2.81-.02-.44,.29-.72,.67-.4,.65,.55,1.05,1.31,1.39,2.01Z" class="cls-3"/><path d="M35.38,48.87c.03-.35,.25-.41,.49-.43,.99-.07,1.91-.32,2.72-.92,.21-.16,.48-.29,.74-.04,.26,.26,.07,.51-.03,.75-.11,.25-.24,.49-.36,.73-.74,1.47-2.53,1.56-3.44,.18-.06-.09-.09-.21-.12-.27Z" class="cls-3"/><path d="M30.56,49.05c-.5,.68-1.33,.97-2.05,1.38-.52,.29-.89-.11-1.11-.55-.31-.63-1.29-1.22-.81-1.89,.51-.71,1.2,.28,1.85,.35,.5,.05,1,.07,1.5,.11,.33,.03,.62,.11,.62,.59Z" class="cls-3"/><path d="M30.65,14.53c-.07,.5-.42,.56-.77,.4-.59-.28-1.17-.61-1.72-.96-.34-.21-.37-.58-.24-.94,.09-.25,.19-.52,.35-.73,.34-.47,.31-1.43,1.07-1.32,.66,.1,.25,.94,.44,1.42,.28,.72,.58,1.43,.87,2.14Z" class="cls-3"/><path d="M19.42,46.81c.81,0,1.62-.02,2.43-.02,.29,0,.67-.07,.77,.33,.08,.32-.18,.48-.41,.62-.79,.45-1.41,1.06-1.84,1.87-.13,.25-.31,.48-.63,.4-.34-.08-.32-.4-.32-.66,0-.85,0-1.7,.01-2.54,0,0,0,0,0,0Z" class="cls-3"/><path d="M45.85,18.05c-.88,.46-1.82,.2-2.74,.24-.2,0-.4-.07-.46-.28-.08-.26,.07-.46,.28-.58,.87-.48,1.55-1.14,2.01-2.03,.11-.21,.3-.38,.56-.32,.35,.08,.33,.39,.34,.65,0,.77,0,1.55,0,2.32,0,0,0,0,0,0Z" class="cls-3"/><path d="M25.2,23.38c-.06,.3-.22,.4-.4,.47-1.04,.42-2.07,.84-3.11,1.25-.17,.07-.38,.19-.51-.03-.06-.11-.03-.29,0-.43,.47-1.91,1.83-2.53,3.57-1.66,.22,.11,.39,.22,.44,.4Z" class="cls-3"/><path d="M27.03,43.54c.86,0,2.15,1.71,1.97,2.39-.08,.31-.27,.34-.52,.2-.98-.57-2.04-.91-3.09-1.29-.16-.06-.36-.2-.41-.35-.08-.23,.17-.33,.34-.39,.62-.22,1.24-.41,1.71-.56Z" class="cls-3"/><path d="M41.87,22.53c.7,.01,2.22,1.96,2.03,2.47-.09,.25-.28,.22-.47,.14-1.07-.43-2.15-.85-3.21-1.31-.49-.21-.57-.57-.03-.8,.56-.24,1.17-.36,1.68-.51Z" class="cls-3"/><path d="M23.31,43.32c-.93-.01-2.33-1.73-2.14-2.32,.1-.33,.35-.24,.56-.16,1.04,.42,2.07,.85,3.11,1.28,.19,.08,.37,.16,.37,.39,0,.22-.18,.35-.37,.4-.59,.17-1.19,.32-1.53,.41Z" class="cls-3"/><path d="M41.85,43.32c-.62-.23-1.76,0-1.93-.77-.16-.71,.99-.57,1.52-.89,.56-.34,1.19-.55,1.8-.81,.18-.08,.37-.17,.54-.02,.2,.17,.09,.37-.02,.52-.51,.74-.47,1.99-1.91,1.96Z" class="cls-3"/><path d="M37.9,43.55c.1,.01,.19,0,.25,.04,.58,.27,1.6,.16,1.69,.79,.11,.75-.92,.59-1.42,.87-.51,.28-1.05,.5-1.58,.74-.22,.1-.46,.16-.66-.02-.22-.19-.12-.43-.01-.64,.41-.76,.59-1.76,1.73-1.79Z" class="cls-3"/><path d="M3.08,38.32c-.43-.12-.84-.22-.89-.69-.04-.44,.31-.6,.66-.67,.68-.15,1.35-.29,2.04-.39,.34-.05,.61,.12,.7,.47,.11,.39-.04,.73-.42,.83-.7,.19-1.42,.31-2.09,.45Z" class="cls-3"/><path d="M61.43,32.75c.68,.15,1.8-.29,1.77,.78-.03,.92-1.08,.62-1.74,.63-.68,.02-1.69,.11-1.69-.76,0-1.05,1.09-.45,1.66-.65Z" class="cls-3"/><path d="M50.86,56.61c.06,.38-.07,.56-.26,.71-.21,.17-.43,.18-.63,0-.71-.61-1.26-1.36-1.67-2.2-.13-.27,.04-.53,.26-.71,.2-.16,.46-.17,.65-.03,.79,.6,1.17,1.51,1.64,2.22Z" class="cls-3"/><path d="M62,28.58c.56,0,1.08,.01,1.1,.65,.02,.56-.44,.66-.88,.73-.57,.09-1.14,.17-1.72,.22-.43,.04-.78-.12-.83-.61-.05-.48,.24-.7,.69-.76,.57-.08,1.14-.17,1.64-.24Z" class="cls-3"/><path d="M3.08,28.58c.57,.08,1.1,.16,1.63,.24,.38,.06,.66,.24,.65,.67,0,.44-.33,.63-.68,.66-.81,.07-1.6-.13-2.37-.34-.32-.09-.48-.39-.36-.74,.2-.59,.71-.47,1.13-.49Z" class="cls-3"/><path d="M35.33,2.99c-.08,.48-.16,1.01-.25,1.54-.06,.39-.26,.65-.68,.64-.43,0-.65-.35-.64-.69,.03-.76,.13-1.52,.27-2.27,.07-.37,.39-.59,.8-.45,.59,.2,.44,.73,.5,1.23Z" class="cls-3"/><path d="M37.68,4.7c.23-.61,.13-1.4,.56-2.04,.17-.26,.4-.53,.77-.36,.35,.16,.53,.46,.44,.86-.14,.64-.28,1.29-.47,1.92-.11,.35-.25,.82-.78,.65-.42-.14-.54-.53-.51-1.03Z" class="cls-3"/><path d="M33.24,61.41c-.13,.65,.25,1.68-.76,1.66-.87-.02-.68-.99-.64-1.6,.05-.64-.44-1.75,.72-1.73,1.05,.02,.5,1.09,.68,1.67Z" class="cls-3"/><path d="M47.25,9.38c-.53-.09-.78-.46-.51-.98,.36-.68,.79-1.34,1.27-1.95,.32-.4,.76-.42,1.03,.11,.27,.54-1.12,2.78-1.8,2.82Z" class="cls-3"/><path d="M15.19,11.14c-.12,.51-.45,.78-.97,.38-.64-.49-1.18-1.11-1.61-1.81-.16-.27-.13-.51,.04-.75,.15-.22,.37-.26,.61-.23,.52,.08,1.95,1.81,1.92,2.4Z" class="cls-3"/><path d="M55.57,52.66c-.16,.58-.71,.63-1.13,.34-.62-.43-1.2-.98-1.66-1.58-.35-.46-.11-.91,.49-1,.48-.07,2.28,1.64,2.3,2.24Z" class="cls-3"/><path d="M3.52,32.77c.12,0,.16,0,.2,0,.56,.1,1.49-.3,1.54,.55,.05,.87-.91,.71-1.51,.85-.04,0-.08,0-.12,0-.68-.09-1.79,.32-1.81-.68-.02-1.02,1.12-.59,1.69-.72Z" class="cls-3"/><path d="M57.35,49.83c-.78-.29-1.56-.83-2.25-1.5-.2-.19-.16-.52,.06-.73,.24-.24,.54-.33,.84-.14,.65,.41,1.29,.83,1.92,1.28,.23,.16,.35,.42,.24,.71-.11,.28-.35,.39-.8,.38Z" class="cls-3"/><path d="M7.97,44.66c0,.35-.19,.58-.49,.73-.52,.25-1.05,.5-1.57,.73-.38,.17-.76,.21-1.02-.21-.29-.47,.07-.76,.38-.94,.59-.36,1.21-.69,1.86-.92,.45-.17,.85,0,.84,.61Z" class="cls-3"/><path d="M31.15,3.44c-.12,.61,.55,1.57-.46,1.67-1.08,.1-.82-1.04-.91-1.66-.09-.59-.43-1.65,.59-1.68,1.16-.04,.57,1.09,.78,1.67Z" class="cls-3"/><path d="M60.76,34.65c.59,.09,1.12,.17,1.65,.24,.44,.06,.74,.26,.7,.74-.03,.42-.39,.61-.73,.6-.72-.04-1.45-.14-2.16-.27-.36-.07-.63-.34-.53-.76,.15-.62,.68-.51,1.07-.54Z" class="cls-3"/><path d="M31.8,3.35c.18-.57-.36-1.63,.74-1.6,1.05,.03,.65,1.05,.66,1.66,.01,.62,.31,1.67-.67,1.65-.93-.02-.63-1.04-.73-1.72Z" class="cls-3"/><path d="M50.5,11.7c-.66-.11-.84-.55-.55-1.01,.41-.65,.95-1.22,1.48-1.79,.26-.28,.65-.29,.95-.02,.33,.3,.2,.63-.04,.93-.57,.68-1,1.49-1.83,1.89Z" class="cls-3"/><path d="M16.76,9.83c0,.26-.16,.43-.36,.56-.23,.16-.45,.08-.63-.09-.65-.57-1.15-1.25-1.56-2.01-.15-.28-.06-.52,.16-.73,.19-.17,.39-.23,.64-.13,.41,.15,1.76,1.99,1.75,2.4Z" class="cls-3"/><path d="M59.54,46.25c-.8-.22-1.58-.56-2.26-1.07-.27-.2-.27-.55-.15-.86,.12-.32,.44-.38,.68-.28,.77,.33,1.62,.53,2.23,1.17,.16,.17,.31,.37,.17,.62-.13,.25-.33,.43-.67,.42Z" class="cls-3"/><path d="M4.9,26.23c-.44-.12-1.12-.29-1.79-.5-.38-.12-.57-.41-.46-.82,.1-.35,.41-.5,.73-.44,.68,.13,1.37,.3,2.03,.5,.38,.12,.75,.35,.6,.85-.13,.41-.51,.42-1.12,.41Z" class="cls-3"/><path d="M27.36,4.64c.01,.54-.07,.92-.56,1-.47,.07-.72-.19-.82-.63-.13-.6-.27-1.21-.4-1.81-.09-.45,.11-.8,.53-.91,.41-.11,.65,.23,.76,.57,.2,.63,.35,1.27,.49,1.78Z" class="cls-3"/><path d="M59.48,24.37c-.54,0-.87,0-.97-.39-.1-.38,.02-.71,.4-.86,.69-.26,1.36-.57,2.11-.62,.33-.02,.63,.04,.71,.44,.06,.34-.04,.65-.37,.77-.68,.26-1.38,.49-1.88,.66Z" class="cls-3"/><path d="M43.44,4.41c-.24,.6-.52,1.36-.85,2.09-.15,.33-.48,.38-.8,.24-.33-.15-.45-.46-.34-.77,.24-.73,.51-1.45,.82-2.16,.12-.28,.4-.5,.76-.32,.29,.15,.47,.4,.42,.92Z" class="cls-3"/><path d="M37.36,62.26c-.02,.2-.12,.58-.6,.63-.35,.04-.62-.15-.67-.49-.12-.72-.21-1.44-.28-2.16-.03-.37,.11-.7,.53-.77,.5-.08,.72,.26,.79,.65,.11,.64,.15,1.29,.24,2.14Z" class="cls-3"/><path d="M18.27,8.54c0,.43-.03,.7-.35,.8-.23,.07-.49,.03-.63-.17-.45-.67-.9-1.34-1.29-2.04-.18-.32-.1-.69,.27-.89,.34-.18,.63,0,.8,.26,.46,.69,1.09,1.3,1.2,2.04Z" class="cls-3"/><path d="M14.56,53.16c.21-.02,.39,.05,.5,.22,.2,.28,.21,.6,0,.86-.45,.58-.93,1.13-1.42,1.68-.19,.21-.47,.27-.75,.16-.23-.09-.36-.3-.39-.54-.06-.49,1.55-2.34,2.05-2.38Z" class="cls-3"/><path d="M57.8,20.81c-.43,.02-.67-.16-.81-.46-.15-.31,.03-.56,.26-.69,.67-.38,1.36-.73,2.05-1.06,.32-.15,.6,0,.81,.27,.21,.25,.19,.52-.04,.72-.68,.58-1.53,.86-2.26,1.21Z" class="cls-3"/><path d="M7.98,20.1c-.05,.53-.31,.86-.77,.67-.75-.3-1.47-.71-2.17-1.11-.24-.14-.37-.42-.25-.72,.11-.28,.36-.45,.65-.38,.88,.21,1.67,.63,2.38,1.17,.1,.08,.12,.27,.16,.37Z" class="cls-3"/><path d="M2.83,36.17c-.45,.04-.88-.05-.9-.61-.02-.49,.33-.63,.76-.68,.57-.06,1.14-.17,1.71-.22,.44-.04,.9,.03,.96,.59,.06,.55-.38,.72-.81,.78-.57,.08-1.14,.1-1.72,.15Z" class="cls-3"/><path d="M11.64,50.53c.69,.02,.94,.36,.66,.82-.42,.69-1.03,1.25-1.72,1.68-.29,.18-.69,.18-.97-.1-.32-.34-.09-.67,.12-.93,.55-.64,1.19-1.18,1.9-1.47Z" class="cls-3"/><path d="M7.68,49.83c-.39,0-.6-.07-.74-.29-.17-.28-.11-.57,.11-.73,.68-.49,1.39-.96,2.11-1.4,.27-.17,.51,.03,.7,.24,.17,.2,.21,.44,.04,.63-.63,.75-1.46,1.22-2.22,1.54Z" class="cls-3"/><path d="M47.24,58.8c.01,.38-.06,.64-.35,.77-.24,.11-.47,.06-.64-.12-.61-.67-.95-1.51-1.26-2.34-.11-.29,.08-.54,.37-.64,.27-.1,.57-.09,.75,.15,.5,.69,.87,1.46,1.14,2.19Z" class="cls-3"/><path d="M41.41,3.84c-.15,.53-.32,1.2-.54,1.86-.13,.38-.47,.51-.86,.39-.41-.13-.52-.46-.42-.83,.16-.64,.34-1.27,.55-1.89,.12-.37,.41-.56,.82-.48,.47,.08,.45,.45,.46,.96Z" class="cls-3"/><path d="M5.57,24.37c-.5-.17-1.2-.4-1.88-.66-.33-.13-.44-.42-.38-.76,.06-.4,.35-.48,.68-.46,.78,.06,1.5,.32,2.18,.69,.29,.15,.44,.45,.35,.79-.1,.39-.43,.38-.96,.39Z" class="cls-3"/><path d="M3.47,30.68c.19,0,.39-.02,.58,0,.5,.05,1.11,.07,1.08,.75-.03,.72-.65,.62-1.15,.63-.39,0-.77,0-1.16,0-.49,0-1.02-.12-1.04-.68-.03-.58,.5-.7,.99-.72,.23,0,.46,0,.69,0h0Z" class="cls-3"/><path d="M29.25,60.66c-.09,.48-.16,1.06-.31,1.61-.09,.35-.35,.65-.75,.59-.41-.05-.55-.43-.54-.78,.02-.53,.12-1.07,.2-1.6,.07-.51,.13-1.09,.83-1.01,.63,.07,.55,.64,.56,1.19Z" class="cls-3"/><path d="M41.41,60.82c0,.6,0,1.03-.5,1.12-.44,.08-.63-.25-.75-.59-.21-.58-.41-1.17-.57-1.77-.11-.42,.07-.79,.48-.95,.43-.16,.67,.17,.79,.5,.24,.61,.41,1.25,.55,1.69Z" class="cls-3"/><path d="M61.28,40.27c-.48-.13-1.19-.31-1.89-.53-.33-.11-.5-.38-.37-.74,.11-.31,.36-.56,.7-.5,.72,.14,1.43,.33,2.13,.54,.34,.11,.64,.35,.52,.78-.12,.42-.49,.44-1.09,.45Z" class="cls-3"/><path d="M45.36,59.69c.02,.37-.02,.64-.3,.79-.34,.18-.63,.03-.82-.23-.47-.67-.76-1.44-.94-2.24-.07-.28,.02-.56,.35-.65,.27-.08,.56-.06,.74,.19,.48,.67,.75,1.45,.97,2.14Z" class="cls-3"/><path d="M35.78,4.11c.08-.43,.17-.96,.26-1.5,.08-.44,.31-.74,.78-.65,.45,.09,.59,.47,.55,.89-.05,.5-.09,1-.2,1.49-.1,.48-.2,1.1-.88,1-.63-.09-.46-.69-.51-1.24Z" class="cls-3"/><path d="M18.43,59.62c-.53-.04-.71-.39-.6-.8,.21-.79,.62-1.49,1.07-2.17,.16-.24,.45-.3,.73-.2,.28,.11,.48,.38,.4,.63-.27,.88-.64,1.73-1.3,2.41-.07,.07-.21,.09-.3,.13Z" class="cls-3"/><path d="M61.43,32.08c-.19,0-.39,0-.58,0-.45,0-.92-.04-.95-.6-.04-.62,.46-.74,.94-.78,.54-.04,1.08-.03,1.62,0,.41,.02,.8,.21,.8,.67,0,.46-.38,.65-.79,.69-.34,.03-.69,0-1.04,0,0,0,0,.01,0,.02Z" class="cls-3"/><path d="M14.71,57.32c-.49-.06-.74-.36-.45-.86,.4-.66,.87-1.28,1.34-1.9,.18-.24,.46-.33,.72-.16,.18,.12,.37,.32,.42,.52,.13,.54-1.42,2.39-2.03,2.4Z" class="cls-3"/><path d="M51.85,56.13c-.46-.02-2.08-1.91-2-2.38,.11-.62,.5-.78,1-.41,.66,.49,1.13,1.17,1.57,1.85,.3,.46-.05,.97-.57,.95Z" class="cls-3"/><path d="M60.09,26.24c-.61,0-1.02-.02-1.1-.53-.06-.43,.27-.63,.61-.73,.63-.19,1.27-.34,1.91-.49,.41-.1,.68,.11,.83,.46,.17,.41-.06,.68-.44,.79-.66,.2-1.34,.37-1.82,.5Z" class="cls-3"/><path d="M10.54,15.86c-.52,.04-2.32-1.44-2.32-1.94,0-.59,.32-.95,.89-.6,.66,.4,1.25,.92,1.83,1.42,.2,.17,.32,.46,.15,.74-.12,.2-.29,.37-.55,.38Z" class="cls-3"/><path d="M54.45,15.85c-.46-.16-.84-.53-.4-1,.57-.61,1.26-1.18,1.99-1.57,.58-.31,.84,.17,.77,.74-.06,.48-1.83,1.86-2.35,1.83Z" class="cls-3"/><path d="M58.16,15.56c-.26,.81-1.08,1.02-1.67,1.47-.34,.26-.75,.46-1.18,.22-.39-.22-.42-.59-.13-.87,.61-.58,1.29-1.11,2.11-1.35,.38-.11,.78-.01,.87,.53Z" class="cls-3"/><path d="M10.04,16.76c-.11,.52-.46,.68-.87,.55-.81-.26-1.5-.78-2.1-1.37-.27-.27-.31-.65,.13-.86,.53-.25,.97,.02,1.37,.34,.52,.42,1.28,.59,1.47,1.34Z" class="cls-3"/><path d="M19.72,59.47c.21-.47,.49-1.11,.79-1.74,.18-.37,.51-.49,.88-.37,.45,.15,.43,.55,.31,.88-.24,.65-.53,1.29-.84,1.92-.14,.29-.43,.48-.78,.37-.42-.14-.44-.49-.37-1.06Z" class="cls-3"/><path d="M48.69,58.63c-.86-.08-2.15-2.21-1.87-2.82,.24-.51,.67-.43,.95-.13,.58,.62,1.04,1.35,1.31,2.16,.14,.41-.06,.74-.38,.79Z" class="cls-3"/><path d="M23.61,58.87c-.25,.63-.51,1.4-.85,2.14-.14,.31-.51,.35-.83,.21-.29-.12-.44-.38-.34-.66,.25-.74,.52-1.46,.82-2.18,.14-.34,.45-.42,.79-.3,.29,.1,.4,.34,.41,.79Z" class="cls-3"/><path d="M12.39,13.85c-.09,.57-.57,.59-.95,.38-.76-.41-1.36-1.06-1.85-1.75-.34-.48,.04-.81,.53-.87,.52-.07,2.29,1.67,2.27,2.24Z" class="cls-3"/><path d="M43.46,60.57c.02,.36-.12,.58-.41,.68-.33,.1-.67,.04-.81-.28-.3-.71-.58-1.44-.8-2.18-.1-.32,.09-.61,.45-.71,.29-.09,.54,0,.71,.26,.44,.71,.6,1.51,.86,2.24Z" class="cls-3"/><path d="M50.76,7.98c.02,.58-1.27,2.35-1.72,2.47-.27,.08-.45-.05-.61-.23-.17-.19-.22-.41-.09-.64,.41-.75,.85-1.5,1.52-2.03,.55-.43,.83-.07,.9,.42Z" class="cls-3"/><path d="M25.59,61.83c.18-.92,.28-1.53,.43-2.13,.09-.35,.31-.69,.71-.63,.43,.06,.67,.43,.61,.85-.09,.64-.27,1.28-.42,1.91-.1,.43-.37,.7-.83,.59-.47-.12-.5-.51-.5-.6Z" class="cls-3"/><path d="M39.31,61.5c-.04,.36,.12,.84-.44,.93-.49,.07-.69-.28-.78-.69-.14-.6-.29-1.21-.4-1.82-.07-.38,.06-.71,.46-.83,.5-.15,.75,.19,.85,.57,.16,.6,.37,1.19,.31,1.83Z" class="cls-3"/><path d="M54.02,53.9c.01,.35-.05,.57-.27,.71-.27,.18-.54,.1-.75-.1-.53-.51-1.05-1.03-1.55-1.57-.28-.3-.24-.63,.06-.93,.33-.32,.64-.24,.91,.06,.57,.62,1.31,1.09,1.61,1.83Z" class="cls-3"/><path d="M29.73,61.68c.05-.33,.14-.82,.21-1.32,.07-.45,.3-.74,.77-.66,.46,.08,.59,.47,.56,.89-.03,.46-.12,.92-.15,1.38-.04,.53-.11,1.13-.76,1.08-.62-.05-.65-.67-.63-1.36Z" class="cls-3"/><path d="M29.25,4.28c-.01,.49,.05,.99-.52,1.08-.55,.08-.72-.4-.81-.81-.13-.56-.2-1.14-.25-1.71-.04-.42,.1-.8,.56-.88,.47-.07,.7,.23,.77,.67,.08,.57,.17,1.14,.25,1.65Z" class="cls-3"/><path d="M35.32,61.78c-.01,.67-.06,1.27-.72,1.27-.57,0-.65-.55-.69-1.04-.04-.5-.15-1-.15-1.5,0-.4,.14-.79,.64-.82,.42-.03,.63,.24,.69,.63,.08,.53,.17,1.07,.23,1.46Z" class="cls-3"/><path d="M20.04,7.57c.02,.39-.08,.64-.33,.79-.23,.14-.46,.04-.63-.13-.65-.64-1.03-1.44-1.26-2.3-.07-.26-.03-.56,.29-.68,.28-.11,.55-.03,.74,.19,.58,.64,.82,1.48,1.2,2.13Z" class="cls-3"/><path d="M5.03,44.24c-.55,0-.89,.02-1-.37-.08-.28,.01-.55,.27-.71,.66-.41,1.36-.73,2.12-.93,.34-.09,.63,.06,.77,.36,.15,.31,.06,.66-.25,.81-.69,.34-1.4,.62-1.91,.84Z" class="cls-3"/><path d="M6.54,41.07c-.02,.26-.16,.46-.38,.55-.69,.26-1.38,.51-2.09,.71-.32,.09-.62-.08-.73-.43-.09-.28-.06-.6,.2-.73,.8-.4,1.62-.76,2.55-.66,.32,.03,.47,.25,.44,.57Z" class="cls-3"/><path d="M10.68,48.95c.42,.1,.71,.41,.42,.82-.53,.77-1.24,1.42-2.17,1.69-.43,.12-.78-.08-.7-.63,.08-.54,1.86-1.93,2.45-1.88Z" class="cls-3"/><path d="M60.22,36.6c.72,.14,1.36,.26,2,.39,.39,.08,.65,.34,.59,.73-.07,.45-.49,.61-.88,.56-.65-.08-1.28-.24-1.92-.38-.39-.08-.63-.33-.57-.74,.07-.49,.46-.54,.79-.57Z" class="cls-3"/><path d="M56.82,51c-.06,.57-.54,.62-.92,.42-.71-.37-1.38-.85-1.89-1.49-.34-.43-.21-.81,.33-.97,.56-.16,2.48,1.4,2.48,2.04Z" class="cls-3"/><path d="M23.63,3.83c0-.47-.02-.82,.36-.92,.39-.11,.72,.08,.85,.42,.25,.64,.45,1.31,.61,1.97,.09,.37-.06,.69-.47,.8-.39,.1-.7-.05-.83-.43-.22-.65-.38-1.32-.53-1.84Z" class="cls-3"/><path d="M55.57,12.18c-.02,.46-1.8,2.14-2.23,2.12-.61-.03-.91-.4-.54-.92,.47-.65,1.05-1.24,1.76-1.65,.55-.32,.86-.02,1.01,.45Z" class="cls-3"/><path d="M59.98,44.24c-.52-.22-1.2-.49-1.86-.81-.31-.15-.42-.48-.28-.8,.16-.37,.48-.51,.86-.37,.65,.25,1.29,.52,1.92,.82,.35,.17,.52,.48,.36,.86-.15,.36-.51,.28-.99,.29Z" class="cls-3"/><path d="M22.12,3.56c.4,0,.63,.14,.74,.41,.25,.65,.5,1.3,.72,1.96,.1,.32,.01,.63-.31,.79-.28,.15-.55,.05-.73-.18-.58-.71-.8-1.58-.94-2.46-.06-.35,.28-.51,.52-.53Z" class="cls-3"/><path d="M58.82,22.5c-.53-.01-.87,.03-1-.35-.11-.34,.03-.64,.34-.78,.66-.31,1.34-.6,2.02-.86,.33-.13,.63,.04,.78,.33,.16,.31,.08,.66-.22,.81-.68,.34-1.4,.62-1.92,.85Z" class="cls-3"/><path d="M59.17,17.32c-.03,.71-2.13,1.92-2.73,1.62-.43-.22-.39-.6-.15-.87,.57-.65,1.33-1.07,2.14-1.33,.46-.15,.71,.18,.73,.59Z" class="cls-3"/><path d="M3.77,40.27c-.59-.01-1.01,0-1.11-.51-.08-.44,.25-.64,.59-.74,.7-.23,1.4-.46,2.15-.4,.34,.03,.61,.16,.65,.54,.03,.31-.17,.52-.45,.6-.67,.2-1.34,.37-1.83,.51Z" class="cls-3"/><path d="M6.28,22.54c-.6-.26-1.28-.52-1.94-.84-.31-.15-.42-.47-.29-.8,.15-.38,.49-.51,.85-.37,.65,.24,1.29,.52,1.92,.82,.35,.16,.53,.47,.37,.86-.15,.37-.51,.26-.91,.33Z" class="cls-3"/><path d="M56.68,45.7c.81,.41,1.73,.66,2.36,1.39,.18,.21,.18,.51,.03,.77-.17,.29-.43,.32-.7,.17-.65-.34-1.3-.68-1.93-1.07-.28-.17-.36-.49-.28-.83,.06-.26,.25-.37,.52-.44Z" class="cls-3"/><path d="M23.63,60.99c.15-.53,.32-1.21,.55-1.87,.12-.33,.37-.65,.79-.49,.35,.13,.57,.44,.47,.83-.18,.67-.38,1.34-.61,2-.11,.31-.33,.55-.7,.48-.44-.08-.49-.44-.5-.95Z" class="cls-3"/><path d="M53.34,10.12c.69,.09,.88,.56,.58,.99-.43,.63-1.02,1.16-1.6,1.66-.27,.24-.68,.2-.93-.12-.24-.29-.13-.6,.11-.83,.6-.59,1.09-1.3,1.84-1.7Z" class="cls-3"/><path d="M20.36,4.28c.12,.08,.31,.15,.42,.29,.49,.65,.75,1.42,.96,2.2,.07,.27-.05,.54-.33,.67-.23,.11-.48,.08-.64-.11-.62-.71-.95-1.57-1.08-2.49-.05-.34,.24-.53,.67-.56Z" class="cls-3"/><path d="M43.9,7.5c-.46-.04-.68-.33-.6-.71,.19-.83,.45-1.67,1-2.31,.38-.44,.86-.27,1.04,.32,.12,.38-.79,2.39-1.14,2.58-.1,.05-.21,.08-.3,.11Z" class="cls-3"/><path d="M59.31,40.48c.66,.14,1.38,.27,2.03,.63,.3,.17,.46,.41,.36,.77-.12,.41-.46,.55-.82,.44-.67-.19-1.32-.43-1.97-.68-.32-.12-.48-.4-.4-.75,.09-.4,.42-.39,.8-.4Z" class="cls-3"/><path d="M60.48,28.1c-.39-.04-.93,.19-1.03-.43-.1-.64,.45-.74,.89-.85,.52-.13,1.06-.2,1.59-.29,.45-.07,.79,.15,.87,.57,.08,.4-.26,.65-.61,.72-.56,.11-1.11,.38-1.71,.28Z" class="cls-3"/><path d="M11.58,10.14c.46-.01,2.25,1.81,2.18,2.24-.07,.43-.38,.55-.78,.5-.45-.06-1.94-1.59-1.96-2.02-.02-.4,.13-.68,.56-.73Z" class="cls-3"/><path d="M45.61,8.39c-.42-.11-.76-.37-.55-.88,.29-.67,.63-1.32,1.03-1.93,.26-.4,.69-.55,1.04-.07,.38,.52-.81,2.83-1.52,2.89Z" class="cls-3"/><path d="M8.89,18.4c.03,.47-.25,.65-.65,.58-.87-.14-1.6-.62-2.2-1.21-.34-.33-.25-.82,.25-1.04,.5-.21,2.56,1.14,2.6,1.67Z" class="cls-3"/><path d="M17.83,55.48c.49,.08,.54,.51,.38,.86-.3,.66-.67,1.29-1.08,1.9-.21,.32-.61,.36-.94,.18-.4-.22-.3-.6-.13-.91,.31-.57,.66-1.13,1.02-1.67,.15-.23,.39-.37,.74-.36Z" class="cls-3"/><path d="M11.75,54.69c-.31,.04-.49-.04-.6-.21-.19-.28-.21-.62,0-.86,.46-.52,.94-1.01,1.45-1.48,.28-.26,.64-.29,.95-.04,.37,.31,.16,.66-.06,.91-.54,.64-1.07,1.3-1.74,1.68Z" class="cls-3"/><path d="M6.67,47.98c-.37,0-.62,0-.73-.26-.15-.33-.05-.63,.22-.83,.58-.44,1.21-.83,1.9-1.09,.27-.1,.54-.14,.73,.13,.19,.28,.21,.63-.04,.85-.64,.57-1.37,.99-2.07,1.2Z" class="cls-3"/><path d="M4.59,28.15c-.61-.12-1.22-.2-1.81-.36-.33-.09-.66-.33-.53-.76,.12-.36,.42-.57,.81-.5,.57,.1,1.13,.24,1.69,.36,.44,.09,.89,.18,.84,.75-.06,.65-.62,.41-1,.51Z" class="cls-3"/><path d="M47.01,18.28c0,.31,0,.63,0,.94,0,0,0,0,0,0-.39,.08-.78,.16-1.18,.23,0,0,0,0,0,0,0-.47,0-.94,0-1.41,0,0,0,0,0,0,.31,0,.63,0,.94,0h0c.08,.07,.16,.15,.24,.24h0Z" class="cls-3"/><path d="M18.25,45.87c.39-.06,.78-.27,1.18,0,0,0,0,0,0,0,0,.31,0,.63,0,.94,0,0,0,0,0,0-.39,.27-.78,.08-1.18,0h0c0-.31,0-.62,0-.93h0Z" class="cls-3"/><path d="M18.73,20.15c-.31,0-.63,0-.94,0h0c-.08-.07-.16-.16-.24-.24,0,0,0,0,0,0,0-.31,0-.63,0-.94,0,0,0,0,0,0,.39,0,.78,0,1.18,0,0,0,0,0,0,0,0,.39,0,.78,0,1.18,0,0,0,0,0,0Z" class="cls-3"/><path d="M46.54,44.94c.31,0,.63,0,.94,0,0,0,0,0,0,0,.08,.08,.16,.16,.24,.24,0,0,0,0,0,0,0,.31,0,.63,0,.94,0,0,0,0,0,0-.39,0-.78,0-1.18,0,0,0,0,0,0,0,0-.39,0-.78,0-1.18,0,0,0,0,0,0Z" class="cls-3"/><path d="M32.52,12.82c-.34-.07-.59-.26-.59-.61,0-.34,.25-.59,.59-.59,.34,0,.59,.25,.59,.59,0,.35-.26,.54-.59,.61Z" class="cls-3"/><path d="M50.49,22.03c-.02,.37-.27,.56-.59,.59-.38,.03-.53-.25-.53-.6,0-.35,.16-.62,.54-.59,.32,.03,.57,.22,.58,.6Z" class="cls-3"/><path d="M43.03,14.17c.34,.07,.59,.26,.59,.61,0,.35-.25,.59-.59,.59-.34,0-.59-.25-.59-.59,0-.35,.26-.54,.59-.61Z" class="cls-3"/><path d="M51.24,27.4c-.31-.02-.63-.12-.6-.51,.03-.32,.27-.56,.61-.59,.37-.04,.6,.18,.6,.53,0,.36-.24,.54-.62,.57Z" class="cls-3"/><path d="M28.44,51.47c-.07,.39-.35,.49-.68,.46-.35-.03-.58-.23-.55-.6,.02-.31,.24-.5,.54-.49,.39,.01,.62,.26,.69,.64Z" class="cls-3"/><path d="M13.01,33.02c-.09,.33-.26,.6-.61,.59-.34,0-.59-.25-.59-.6,0-.35,.25-.59,.6-.59,.35,0,.54,.25,.6,.6Z" class="cls-3"/><path d="M37.39,13.15c.38,.03,.68,.16,.62,.54-.05,.32-.29,.55-.64,.56-.36,.01-.59-.21-.57-.57,.02-.36,.29-.51,.59-.54Z" class="cls-3"/><path d="M23.09,15.05c-.11,.32-.3,.58-.65,.55-.33-.03-.58-.27-.55-.62,.03-.33,.27-.58,.63-.55,.33,.03,.54,.27,.58,.62Z" class="cls-3"/><path d="M39.71,56.31c-.06,.3-.25,.49-.55,.48-.36-.01-.54-.25-.53-.61,0-.34,.22-.48,.53-.46,.35,.02,.56,.22,.56,.6Z" class="cls-3"/><path d="M51.21,41.69c-.01,.35-.17,.6-.54,.62-.3,.01-.52-.17-.55-.49-.03-.37,.2-.57,.56-.6,.32-.03,.51,.13,.53,.47Z" class="cls-3"/><path d="M51.57,36.3c.37,0,.57,.14,.57,.48,0,.36-.18,.61-.54,.62-.3,0-.52-.18-.54-.49-.03-.39,.23-.53,.51-.6Z" class="cls-3"/><path d="M16.34,42.5c-.06,.36-.28,.54-.63,.54-.34,0-.49-.22-.47-.53,.03-.35,.22-.59,.6-.55,.31,.03,.47,.24,.5,.54Z" class="cls-3"/><path d="M56.34,25.09c.33,.01,.5,.2,.47,.52-.03,.34-.22,.58-.6,.55-.31-.02-.5-.23-.49-.53,.01-.36,.26-.53,.62-.54Z" class="cls-3"/><path d="M33.41,52.55c-.05,.37-.27,.54-.63,.54-.34,0-.49-.21-.47-.52,.03-.35,.22-.59,.6-.56,.31,.02,.46,.24,.5,.54Z" class="cls-3"/><path d="M14.5,38.12c-.02,.42-.18,.67-.55,.68-.3,0-.52-.18-.54-.49-.03-.38,.21-.57,.56-.6,.32-.03,.5,.15,.53,.41Z" class="cls-3"/><path d="M8.41,38.47c-.06,.33-.22,.58-.59,.56-.31-.02-.49-.23-.48-.53,.02-.36,.25-.53,.6-.54,.34,0,.46,.2,.46,.51Z" class="cls-3"/><path d="M53.23,31.81c-.05,.38-.31,.51-.64,.49-.29-.01-.55-.13-.54-.47,.01-.34,.23-.59,.57-.6,.35-.01,.52,.25,.61,.57Z" class="cls-3"/><path d="M15.08,22.13c.29,.12,.57,.3,.51,.65-.05,.32-.28,.57-.64,.52-.38-.05-.45-.37-.41-.7,.04-.3,.2-.48,.54-.48Z" class="cls-3"/><path d="M14.2,49.43c.3,.05,.5,.24,.48,.54-.02,.36-.26,.54-.61,.54-.34,0-.48-.2-.46-.51,.03-.35,.22-.55,.59-.57Z" class="cls-3"/><path d="M38.82,51.16c0,.32-.14,.53-.48,.53-.36,0-.61-.17-.62-.54-.01-.3,.18-.52,.49-.55,.38-.03,.55,.21,.61,.56Z" class="cls-3"/><path d="M50.45,15.04c-.13,.36-.4,.47-.74,.39-.34-.08-.39-.36-.31-.65,.09-.3,.31-.45,.63-.34,.27,.09,.49,.25,.42,.59Z" class="cls-3"/><path d="M15.17,14.44c-.04,.31-.2,.51-.52,.52-.31,0-.52-.17-.54-.49-.02-.37,.18-.6,.56-.58,.31,.02,.47,.23,.5,.54Z" class="cls-3"/><path d="M27.53,13.82c-.06,.37-.18,.65-.55,.66-.31,0-.48-.21-.51-.51-.04-.37,.12-.59,.51-.58,.3,0,.48,.18,.56,.43Z" class="cls-3"/><path d="M22.95,49.16c.33,.01,.61,.14,.59,.52-.01,.27-.15,.53-.47,.56-.38,.04-.56-.21-.59-.55-.03-.31,.12-.51,.46-.54Z" class="cls-3"/><path d="M43.92,50.27c-.32,.01-.54-.12-.59-.43-.06-.36,.11-.61,.47-.64,.37-.04,.58,.18,.59,.53,.01,.3-.18,.49-.47,.54Z" class="cls-3"/><path d="M8.34,25.09c.31,0,.52,.11,.53,.45,.01,.29-.09,.56-.41,.59-.36,.04-.58-.23-.62-.54-.05-.32,.2-.46,.5-.5Z" class="cls-3"/><path d="M38.64,8.02c.28,.03,.55,.11,.55,.45,0,.35-.25,.56-.58,.59-.33,.02-.45-.24-.46-.53-.01-.32,.17-.49,.49-.5Z" class="cls-3"/><path d="M26.02,9.08c-.38-.08-.5-.3-.49-.6,.01-.33,.21-.47,.52-.46,.29,.02,.54,.16,.51,.48-.03,.34-.29,.5-.55,.57Z" class="cls-3"/><path d="M13.68,28.79c-.37-.01-.56-.17-.55-.49,0-.29,.12-.56,.45-.56,.35,0,.58,.24,.59,.58,.02,.33-.26,.43-.49,.47Z" class="cls-3"/><path d="M25.96,56.36c-.02,.32-.21,.48-.52,.47-.29,0-.55-.14-.52-.46,.03-.33,.25-.56,.6-.56,.33,0,.42,.26,.44,.55Z" class="cls-3"/><path d="M50.33,50.1c-.02-.4,.13-.6,.44-.65,.29-.05,.42,.14,.44,.4,.03,.28,.01,.58-.33,.63-.31,.05-.48-.17-.55-.38Z" class="cls-3"/><path d="M56.6,38.18c.27,0,.42,.14,.44,.41,.01,.26-.1,.44-.38,.46-.31,.02-.51-.12-.5-.46,0-.27,.17-.4,.44-.41Z" class="cls-3"/><path d="M5.88,50.98c-.05,.01-.11,.03-.16,.04,0-.05,.01-.1,.02-.15,.04,.05,.08,.1,.12,.14,0,0,.02-.03,.02-.03Z" class="cls-1"/><path d="M32.68,40.51c-4.23,.07-7.85-.75-11.1-2.94-3.95-2.66-4.01-6.9-.11-9.66,2.24-1.58,4.8-2.4,7.48-2.81,3.87-.59,7.68-.28,11.36,1.12,2.14,.81,4.13,1.9,5.37,3.92,1.56,2.53,.73,5.01-1.42,6.85-2.18,1.86-4.85,2.76-7.64,3.26-1.42,.26-2.86,.3-3.94,.26Zm6.15-7.58c0,.54-.01,1.09,0,1.63,.05,1.59,.84,2.4,2.36,2.42,1.62,.02,2.47-.73,2.54-2.36,.05-1.13,.04-2.26,0-3.39-.06-1.66-.88-2.44-2.48-2.43-1.57,0-2.36,.81-2.42,2.49-.02,.54,0,1.09,0,1.63Zm-17.76-.13c.01,.81-.04,1.62,.19,2.43,.38,1.34,.89,1.75,2.34,1.75,1.38,0,2.04-.47,2.36-1.76,.4-1.61,.32-3.23,0-4.85-.1-.48-.38-.84-.75-1.14-1.37-1.1-3.46-.42-3.92,1.25-.21,.76-.22,1.53-.21,2.31Zm6.1,.02s.03,0,.05,0c0,1.09-.04,2.18,.02,3.26,.02,.42,.24,.88,.79,.84,.5-.04,.72-.43,.74-.9,.03-.54,0-1.09,.02-1.63,.02-.32-.15-.78,.37-.84,.44-.05,.55,.37,.68,.68,.32,.75,.59,1.52,.93,2.26,.13,.27,.39,.53,.76,.36,.35-.17,.53-.44,.38-.85-.25-.7-.43-1.42-.73-2.09-.26-.57-.28-.94,.27-1.39,.75-.62,.76-1.5,.44-2.36-.33-.89-1.03-1.19-1.95-1.13-.54,.04-1.09,.03-1.63,0-.81-.04-1.14,.36-1.14,1.12,0,.89,0,1.79,0,2.68Zm6.05,0c0,.97,0,1.95,0,2.92,0,.51,.11,.97,.73,.99,1.09,.03,2.18,.02,3.27,0,.35,0,.62-.2,.62-.57,0-.37-.27-.55-.62-.57-.54-.03-1.09-.04-1.64-.02-.82,.03-.94-.46-.95-1.13-.01-.67,.19-1.03,.93-.99,.46,.03,.94,.01,1.4-.05,.36-.05,.69-.23,.67-.67-.02-.42-.31-.61-.7-.64-.43-.02-.86-.04-1.28-.01-.65,.04-1.03-.13-1.01-.9,.02-.7,.31-1,.99-.97,.43,.02,.86,0,1.29,0,.38,0,.72-.07,.74-.55,.03-.54-.34-.64-.77-.64-.9,0-1.79,0-2.69,0-.69,0-.99,.31-.98,1,.02,.93,0,1.87,0,2.8Zm-.8-5.46s0,0,0,0c.74,0,1.48,0,2.21,0,.26,0,.58,.02,.62-.36,.03-.28-.22-.37-.41-.5-1.63-1.15-3.23-.99-4.83,.05-.19,.12-.47,.21-.39,.5,.07,.25,.33,.31,.57,.31,.74,0,1.48,0,2.21,0Zm.08,10.57s0,0,0,.01c-.77,0-1.55,0-2.32,0-.24,0-.49,.07-.55,.33-.06,.3,.22,.36,.42,.48,1.51,.9,3.03,1.35,4.59,.1,.23-.18,.68-.22,.6-.6-.1-.47-.56-.3-.88-.31-.62-.02-1.24,0-1.86,0Z" class="cls-2"/><path d="M47.72,45.17c-.08-.08-.16-.16-.24-.24,.08,.08,.16,.16,.24,.24Z" class="cls-2"/><path d="M17.55,19.92c.08,.08,.16,.16,.24,.24-.08-.08-.16-.16-.24-.24Z" class="cls-2"/><path d="M47.02,18.29c-.08-.08-.16-.16-.24-.24,.08,.08,.16,.16,.24,.24Z" class="cls-2"/><path d="M40.49,32.91c0-.7-.03-1.4,.01-2.1,.02-.4,.19-.78,.68-.8,.51-.02,.86,.31,.87,.76,.05,1.44,.04,2.87,0,4.31-.02,.46-.35,.77-.88,.72-.48-.05-.68-.35-.69-.79-.01-.7,0-1.4,0-2.1,0,0,0,0,.01,0Z" class="cls-2"/><path d="M22.65,32.83c.05-.7,.06-1.4,.17-2.09,.06-.38,.3-.73,.78-.74,.49-.01,.7,.3,.78,.71,.29,1.46,.29,2.93,0,4.39-.09,.42-.31,.71-.8,.69-.48-.02-.71-.38-.77-.76-.1-.73-.11-1.47-.16-2.2Z" class="cls-2"/><path d="M28.76,31.16c.11-.47-.22-1.18,.64-1.12,.66,.05,1.06,.42,1.02,1.15-.03,.63-.3,1.05-.95,1.09-.93,.05-.58-.7-.7-1.12Z" class="cls-2"/><path d="M31.52,16.45l-1,1.04-1.5,.32-1.45,.32-.54,.23-.14,.63,.18,.59-.77,.27-.32,.09s-.5,.32-.54,.5-.5,.68-.27,.95,1.31,1.27,1.31,1.27c0,0,.68,.23,.82,.23s-.91,.54-.68,.54c0,0,.59-.09,.18,0s-.95,.32-.95,.32l-1.72-1.99-3.17,1.22-2.99,6.03-1.18,3.31,.63,3.35,.95,1.86,4.35,2.63,4.49,1.63,5.89,.68,4.44-.45,6.89-2.54,2.49-2.67,1.09-2.45,.32-2.45-2.31-4.89-1.59-2.63s-.54-2.04-.68-2.13-1.81-1.18-1.81-1.18l-.73-.95-1.5-.95-.91-.5-1.13-.23-1.13-.16-.73-.61-.32-.18-.41-.41-1.13-.5-2.45-.14Z" class="cls-2"/><circle cx="32.56" cy="32.41" r="15.06" class="cls-2"/><circle cx="32.52" cy="32.42" r="26.2" class="cls-2"/></g></g></g></svg>