<svg xmlns="http://www.w3.org/2000/svg" id="Layer_2" data-name="Layer 2" viewBox="0 0 21.26 19.59"><defs><style>.cls-1{fill:#fff}</style></defs><g id="Layer_1-2" data-name="Layer 1"><g><path d="M20.47,7.85c-.1,0-.21,0-.31,0h-.04c-.35,0-.54-.19-.56-.55-.05-1.22-.82-2.2-1.98-2.5-.22-.06-.45-.09-.68-.09-3.06,0-6.2,0-8.91,0H3.37s.71,.89,.71,.89c.01,.02,.03,.03,.04,.05,.03,.04,.07,.09,.12,.14,.09,.09,.18,.18,.27,.27,.16,.16,.32,.32,.47,.48,.08,.08,.08,.15,0,.23-.28,.3-.58,.6-.89,.89-.03,.03-.07,.06-.11,.06-.04,0-.08-.03-.1-.05C2.54,6.32,1.21,4.99,.07,3.85c.74-.74,1.47-1.47,2.21-2.21l.73-.73c.08-.08,.16-.16,.24-.24,.19-.19,.39-.39,.58-.58,.07-.07,.13-.1,.16-.1,.04,0,.09,.03,.15,.09,.27,.27,.54,.54,.81,.81,.13,.13,.13,.18,0,.31-.18,.18-.37,.37-.57,.56-.09,.09-.19,.19-.29,.29l-.95,.94h1.69c1.18,0,2.36,0,3.55,0,1.18,0,2.36,0,3.55,0,1.92,0,3.49,0,4.94,0,2.04,0,3.76,1.31,4.26,3.26,.08,.31,.12,.66,.14,1.11,0,.12-.04,.23-.12,.32-.09,.1-.22,.16-.36,.16-.09,0-.19,0-.31,0Z" class="cls-1"/><path d="M17.27,19.59s-.09-.03-.13-.07c-.29-.28-.58-.57-.85-.85-.1-.1-.1-.16,0-.26,.18-.19,.37-.37,.58-.57h0c.1-.1,.2-.2,.3-.3l.96-.94h-1.65c-1.19,0-2.37,0-3.56,0h-.33c-1.08,0-2.15,0-3.23,0-1.93,0-3.51,0-4.96,0-.98,0-1.9-.3-2.66-.86-.76-.56-1.3-1.34-1.56-2.26-.1-.34-.15-.73-.18-1.25,0-.12,.03-.23,.11-.31,.09-.1,.23-.16,.38-.16,.11,0,.23,0,.35,0s.23,0,.35,0c.29,0,.5,.2,.5,.46,0,.73,.29,1.4,.8,1.91,.52,.51,1.23,.79,1.99,.79h.02c1.53,0,3.21-.01,5.27-.01,1.12,0,2.26,0,3.36,0,1.1,0,2.24,0,3.36,0h1.64l-.96-.94c-.1-.09-.19-.19-.28-.27h0c-.18-.19-.37-.37-.55-.55-.17-.17-.17-.21,0-.38,.07-.07,.13-.13,.2-.2,.19-.19,.39-.39,.59-.58,.05-.05,.11-.08,.15-.08,.03,0,.08,.03,.13,.07,1.3,1.3,2.59,2.58,3.78,3.78-1.21,1.21-2.49,2.49-3.78,3.78-.05,.05-.09,.07-.13,.07Z" class="cls-1"/></g></g></svg>