<svg xmlns="http://www.w3.org/2000/svg" xmlns:xlink="http://www.w3.org/1999/xlink" id="Layer_1" x="0" y="0" version="1.1" viewBox="0 0 43.55 43.55" xml:space="preserve" style="enable-background:new 0 0 43.55 43.55"><style type="text/css">.st37,.st6{fill:#fff}.st37{opacity:.25}</style><g><circle cx="21.78" cy="21.78" r="21.78" class="st37"/><g id="notNdv.tif_00000031909827999794488410000002802032300856524705_"><g><g><path d="M19.83,27.51c0.04-0.52,0.07-1.03,0.11-1.53c0.05-0.67,0.09-1.34,0.15-2c0.01-0.07,0.05-0.16,0.1-0.2 c2.17-1.95,4.34-3.91,6.52-5.86c0.02-0.02,0.04-0.03,0.06-0.05c0.04-0.08,0.08-0.15,0.12-0.23c-0.09-0.02-0.18-0.06-0.27-0.05 c-0.11,0.02-0.21,0.08-0.3,0.14c-2.7,1.69-5.41,3.38-8.11,5.08c-0.1,0.06-0.18,0.07-0.3,0.04c-1.13-0.36-2.26-0.7-3.39-1.06 c-0.14-0.04-0.28-0.11-0.4-0.19c-0.24-0.17-0.26-0.4-0.05-0.59c0.15-0.13,0.32-0.25,0.5-0.32c1.08-0.43,2.16-0.84,3.24-1.25 c3.58-1.37,7.15-2.74,10.73-4.11c0.09-0.03,0.17-0.06,0.26-0.08c0.48-0.08,0.84,0.21,0.83,0.72c-0.01,0.34-0.08,0.68-0.15,1.01 c-0.74,3.49-1.49,6.98-2.24,10.48c-0.04,0.18-0.1,0.37-0.19,0.53c-0.16,0.3-0.43,0.41-0.75,0.32c-0.16-0.05-0.33-0.12-0.47-0.22 c-1.13-0.82-2.26-1.65-3.39-2.48c-0.11-0.08-0.17-0.07-0.26,0.02c-0.57,0.55-1.15,1.1-1.72,1.65 C20.29,27.42,20.1,27.52,19.83,27.51z" class="st6"/></g></g></g></g></svg>