<svg xmlns="http://www.w3.org/2000/svg" xmlns:xlink="http://www.w3.org/1999/xlink" id="Layer_1" x="0" y="0" version="1.1" viewBox="0 0 22.86 22.86" xml:space="preserve" style="enable-background:new 0 0 22.86 22.86"><style type="text/css">.st7{fill:#243b41}</style><g><g><g><g id="x94HI6.tif_00000098192044133704958640000013902488817423219872_"><g><g><path d="M11.47,17.17c-3.25,0-5.82-2.58-5.79-5.88c0.03-2.89,2.46-5.59,5.73-5.6c3.15,0,5.77,2.61,5.75,5.77 C17.17,14.57,14.57,17.17,11.47,17.17z M15.6,11.36c-0.09-2.48-2.01-4.14-4.23-4.1c-2.5,0.04-4.18,2.06-4.11,4.29 c0.07,2.36,1.9,4.08,4.22,4.04C14.05,15.54,15.62,13.54,15.6,11.36z" class="st7"/><path d="M1.96,10.64c0.37,0,0.73-0.01,1.1,0c0.49,0.01,0.83,0.33,0.84,0.77c0.01,0.45-0.32,0.79-0.81,0.8 c-0.76,0.02-1.51,0.02-2.27,0C0.32,12.2,0,11.87,0,11.42c0-0.46,0.35-0.77,0.86-0.78C1.22,10.63,1.59,10.64,1.96,10.64z" class="st7"/><path d="M20.93,10.64c0.36,0,0.71-0.01,1.07,0c0.51,0.01,0.86,0.33,0.86,0.78c0,0.44-0.34,0.79-0.84,0.8 c-0.74,0.01-1.48,0.01-2.22,0c-0.5-0.01-0.84-0.35-0.83-0.81c0.01-0.45,0.35-0.76,0.87-0.77 C20.2,10.63,20.56,10.64,20.93,10.64z" class="st7"/><path d="M17.33,16.48c0.17,0.09,0.38,0.16,0.51,0.29c0.56,0.53,1.1,1.08,1.64,1.64c0.34,0.35,0.33,0.8,0.01,1.11 c-0.31,0.31-0.76,0.3-1.11-0.05c-0.54-0.53-1.07-1.06-1.6-1.6c-0.24-0.24-0.32-0.54-0.19-0.86 C16.72,16.7,16.96,16.53,17.33,16.48z" class="st7"/><path d="M12.21,1.94c0,0.37,0.01,0.75,0,1.12c-0.01,0.48-0.34,0.83-0.78,0.83c-0.44,0-0.78-0.35-0.78-0.83 c-0.01-0.75-0.01-1.5,0-2.24C10.65,0.34,11-0.01,11.44,0c0.43,0.01,0.75,0.35,0.77,0.82c0,0.02,0,0.03,0,0.05 C12.21,1.23,12.21,1.58,12.21,1.94z" class="st7"/><path d="M12.21,20.9c0,0.37,0,0.73,0,1.1c-0.01,0.49-0.35,0.86-0.79,0.86c-0.43,0-0.77-0.36-0.78-0.84 c-0.01-0.77-0.01-1.55,0.01-2.32c0.01-0.37,0.29-0.67,0.64-0.72c0.37-0.06,0.72,0.13,0.86,0.49c0.05,0.12,0.06,0.26,0.06,0.4 C12.22,20.21,12.21,20.56,12.21,20.9z" class="st7"/><path d="M19.8,3.93c-0.09,0.17-0.14,0.36-0.27,0.5c-0.54,0.57-1.1,1.13-1.67,1.68c-0.31,0.31-0.77,0.31-1.06,0.03 c-0.32-0.31-0.36-0.77-0.04-1.09c0.56-0.59,1.15-1.16,1.73-1.73c0.23-0.22,0.52-0.25,0.8-0.12 C19.59,3.33,19.75,3.57,19.8,3.93z" class="st7"/><path d="M3.06,3.93c0.05-0.35,0.21-0.6,0.5-0.73c0.29-0.13,0.57-0.1,0.8,0.12c0.58,0.57,1.17,1.14,1.73,1.72 c0.3,0.32,0.27,0.78-0.03,1.08c-0.3,0.29-0.76,0.3-1.07-0.01C4.42,5.55,3.87,5,3.32,4.42C3.2,4.29,3.14,4.09,3.06,3.93z" class="st7"/><path d="M3.06,18.95c0.08-0.17,0.13-0.37,0.26-0.5c0.55-0.58,1.11-1.14,1.68-1.7c0.31-0.3,0.74-0.31,1.03-0.04 c0.32,0.29,0.38,0.76,0.09,1.07c-0.57,0.61-1.17,1.2-1.78,1.78c-0.22,0.21-0.52,0.23-0.81,0.08 C3.26,19.5,3.11,19.28,3.06,18.95z" class="st7"/></g></g></g></g></g></g></svg>