<?xml version="1.0" encoding="UTF-8"?>
<svg id="Layer_2" data-name="Layer 2" xmlns="http://www.w3.org/2000/svg" xmlns:xlink="http://www.w3.org/1999/xlink" viewBox="0 0 108.88 108.31">
  <defs>
    <style>
      .cls-1 {
        filter: url(#drop-shadow-1);
      }

      .cls-2 {
        fill: #3685ed;
      }
    </style>
    <filter id="drop-shadow-1" filterUnits="userSpaceOnUse">
      <feOffset dx="0" dy="104.81"/>
      <feGaussianBlur result="blur" stdDeviation="87.34"/>
      <feFlood flood-color="#1d357c" flood-opacity=".2"/>
      <feComposite in2="blur" operator="in"/>
      <feComposite in="SourceGraphic"/>
    </filter>
  </defs>
  <g id="Layer_1-2" data-name="Layer 1">
    <g class="cls-1">
      <g id="_1CVp13.tif" data-name="1CVp13.tif">
        <g>
          <path class="cls-2" d="M101.25,54.5c-.62-9.06-.96-18.15-1.95-27.17-.98-8.88-8.06-16.63-17.94-18.08-4.71-.69-9.44-1.28-14.17-1.91-2.49-.33-3.74-1.63-3.69-3.89,.04-1.99,1.73-3.68,3.72-3.43,5.89,.73,11.89,1.09,17.62,2.49,11.65,2.85,18.8,10.51,21.39,22.23,2.99,13.54,3.1,27.27,2.07,41.02-.44,5.8-.78,11.69-2.05,17.34-2.75,12.22-10.64,19.67-22.88,22.28-9.16,1.95-18.47,2.83-27.84,2.92-9.65,.08-19.18-.89-28.67-2.6-4.99-.9-9.69-2.39-13.82-5.39-6.33-4.6-9.73-10.96-10.83-18.6C.44,69.43-.35,57.09,.15,44.68c.3-7.46,.84-14.93,2.98-22.11C6.56,11,14.53,4.2,26.31,2c4.86-.91,9.82-1.32,14.74-1.93,2.31-.29,4.17,1.15,4.45,3.35,.27,2.07-1.27,3.78-3.63,4.07-5.18,.64-10.39,1.11-15.53,2-8.64,1.48-15.69,9.01-16.9,17.73-2.12,15.29-2.39,30.63-.95,45.99,.28,2.94,.51,5.9,1.09,8.78,1.69,8.41,8.45,14.69,17.23,16.27,10.69,1.92,21.45,2.89,32.31,2.53,8.07-.27,16.1-1.09,23.97-2.89,8.65-1.98,14.81-9.04,16.13-17.79,1.28-8.49,1.66-17.02,1.7-25.58l.33-.02Z"/>
          <path class="cls-2" d="M58.06,27.55v1.48c0,13.78,0,27.56,0,41.34,0,.57,.02,1.15-.1,1.69-.39,1.78-2.07,2.98-3.86,2.83-1.77-.15-3.2-1.65-3.3-3.47-.02-.42-.01-.83-.01-1.25,0-13.67,0-27.33,0-41v-1.6c-.47,.36-.82,.6-1.15,.87-4.71,3.81-9.4,7.63-14.13,11.42-2.33,1.86-5.3,.91-5.98-1.89-.38-1.58,.24-2.79,1.47-3.78,4.48-3.61,8.94-7.25,13.4-10.87,2.44-1.98,4.88-3.96,7.31-5.94,2.05-1.67,3.6-1.49,5.61,.23,2.99,2.55,6.12,4.94,9.2,7.4,3.76,3,7.52,5.99,11.27,8.99,1.81,1.44,2.15,3.55,.87,5.18-1.43,1.82-3.79,2.09-5.63,.6-4.61-3.75-9.2-7.52-13.8-11.28-.32-.26-.64-.51-1.18-.94Z"/>
        </g>
      </g>
    </g>
  </g>
</svg>