<svg xmlns="http://www.w3.org/2000/svg" xmlns:xlink="http://www.w3.org/1999/xlink" id="Layer_1" x="0" y="0" version="1.1" viewBox="0 0 21.32 12.21" xml:space="preserve" style="enable-background:new 0 0 21.32 12.21"><style type="text/css">.st11{opacity:.5;fill:#243b41}</style><path d="M0.65,12.21c-0.06,0-0.12-0.01-0.18-0.02c-0.22-0.06-0.38-0.22-0.45-0.43c-0.06-0.22-0.01-0.45,0.14-0.61	c0.18-0.2,0.38-0.39,0.57-0.58c0.08-0.08,0.16-0.16,0.24-0.24c1.98-1.98,3.95-3.95,5.93-5.93c0.2-0.2,0.39-0.3,0.56-0.3	c0.17,0,0.36,0.1,0.57,0.31c0.62,0.62,3.62,3.62,3.62,3.62c0.04,0.04,0.08,0.08,0.12,0.11l0.03,0.03L12,8.34l7.05-7.05l-0.97,0	c-0.25,0-0.49,0-0.74,0c-0.25,0-0.49,0-0.74,0c-0.56,0-0.99,0-1.39,0c-0.29,0-0.52-0.17-0.61-0.43c-0.08-0.26,0-0.54,0.21-0.71	C14.93,0.04,15.09,0,15.32,0c0.87,0,1.75,0,2.62,0l2.4,0c0.04,0,0.09,0,0.13,0c0.04,0,0.08,0,0.12,0c0.07,0,0.13,0,0.18,0.01	c0.33,0.04,0.55,0.3,0.55,0.63c0,2.08,0,3.8,0,5.42c0,0.41-0.26,0.69-0.64,0.69l-0.01,0c-0.38,0-0.65-0.29-0.65-0.7	c0-0.68,0-1.38,0-2.05c0-0.29,0-0.58,0-0.87V2.25l-0.45,0.42c-0.03,0.03-0.06,0.06-0.09,0.08c-0.05,0.04-0.09,0.08-0.12,0.12	l-1.29,1.29c-1.81,1.81-3.68,3.68-5.52,5.52c-0.18,0.18-0.35,0.27-0.53,0.27c-0.07,0-0.14-0.01-0.21-0.04	c-0.1-0.04-0.22-0.12-0.34-0.24c-1.24-1.23-2.48-2.48-3.65-3.65C7.83,6,7.81,5.97,7.8,5.94C7.78,5.92,7.77,5.89,7.75,5.86L7.67,5.73	L7.28,5.76L7.21,5.86C7.19,5.89,7.18,5.91,7.16,5.94C7.14,5.97,7.12,6,7.11,6.02c-0.85,0.85-1.7,1.7-2.55,2.55	C3.43,9.7,2.3,10.83,1.17,11.97C1,12.13,0.83,12.21,0.65,12.21z" class="st11"/></svg>