<svg xmlns="http://www.w3.org/2000/svg" xmlns:xlink="http://www.w3.org/1999/xlink" id="Layer_1" x="0" y="0" version="1.1" viewBox="0 0 43.55 43.55" xml:space="preserve" style="enable-background:new 0 0 43.55 43.55"><style type="text/css">.st37,.st6{fill:#fff}.st37{opacity:.25}</style><g><circle cx="21.78" cy="21.78" r="21.78" class="st37"/><g id="OuiC4f.tif_00000079475161678243563800000014713389840839818634_"><g><g><path d="M13.96,26.73c1.74,0.16,3.29-0.27,4.7-1.33c-1.47-0.13-2.45-0.87-3-2.25c0.49,0.06,0.94,0.07,1.42-0.06 c-1.93-0.5-2.6-2.22-2.52-3.19c0.43,0.22,0.88,0.36,1.42,0.38c-0.7-0.51-1.15-1.15-1.33-1.97c-0.18-0.81-0.06-1.58,0.36-2.32 c1.74,2.05,3.94,3.18,6.61,3.36c-0.01-0.32-0.04-0.62-0.03-0.92c0.06-1.87,1.87-3.32,3.71-3c0.68,0.12,1.27,0.41,1.76,0.89 c0.07,0.07,0.13,0.08,0.22,0.05c0.62-0.14,1.21-0.36,1.77-0.67c0.04-0.02,0.07-0.04,0.14-0.07c-0.25,0.75-0.7,1.3-1.32,1.74 c0.6-0.06,1.17-0.23,1.74-0.43c-0.12,0.16-0.22,0.33-0.35,0.47c-0.37,0.37-0.75,0.72-1.12,1.08c-0.05,0.05-0.1,0.13-0.1,0.2 c0.05,1.99-0.5,3.82-1.6,5.48c-0.99,1.5-2.31,2.61-3.97,3.3c-0.89,0.37-1.82,0.58-2.78,0.66c-1.15,0.09-2.28-0.01-3.38-0.33 c-0.81-0.23-1.57-0.58-2.28-1.02C13.99,26.77,13.98,26.75,13.96,26.73z" class="st6"/></g></g></g></g></svg>